<svg xmlns="http://www.w3.org/2000/svg" width="106.42" height="25.1" viewBox="0 0 106.42 25.1"><defs><style>.cls-1{fill:#fff;}.cls-2{fill:#e5e5e5;}</style></defs><title>abxy-pressed</title><g id="Layer_2" data-name="Layer 2"><g id="Layer_6" data-name="Layer 6"><path class="cls-1" d="M12.55,24.6A12.05,12.05,0,1,1,24.6,12.55,12.07,12.07,0,0,1,12.55,24.6Z"/><path class="cls-2" d="M12.55,1A11.55,11.55,0,1,1,1,12.55,11.55,11.55,0,0,1,12.55,1m0-1A12.55,12.55,0,1,0,25.1,12.55,12.57,12.57,0,0,0,12.55,0Z"/><polygon points="17.52 8.78 16.32 7.59 12.55 11.36 8.78 7.59 7.59 8.78 11.36 12.55 7.59 16.32 8.78 17.52 12.55 13.75 16.32 17.52 17.52 16.32 13.75 12.55 17.52 8.78"/><path class="cls-1" d="M39.66,24.6A12.05,12.05,0,1,1,51.71,12.55,12.07,12.07,0,0,1,39.66,24.6Z"/><path class="cls-2" d="M39.66,1A11.55,11.55,0,1,1,28.1,12.55,11.55,11.55,0,0,1,39.66,1m0-1A12.55,12.55,0,1,0,52.21,12.55,12.57,12.57,0,0,0,39.66,0Z"/><path d="M39.66,18.47a5.92,5.92,0,1,1,5.92-5.92A5.92,5.92,0,0,1,39.66,18.47Zm0-10.14a4.23,4.23,0,1,0,4.23,4.23A4.23,4.23,0,0,0,39.66,8.33Z"/><path class="cls-1" d="M66.76,24.6A12.05,12.05,0,1,1,78.81,12.55,12.07,12.07,0,0,1,66.76,24.6Z"/><path class="cls-2" d="M66.76,1A11.55,11.55,0,1,1,55.21,12.55,11.55,11.55,0,0,1,66.76,1m0-1A12.55,12.55,0,1,0,79.31,12.55,12.57,12.57,0,0,0,66.76,0Z"/><path d="M71.69,17.48H61.83V7.62h9.86Zm-8.17-1.69H70V9.31H63.52Z"/><path class="cls-1" d="M93.86,24.6a12.05,12.05,0,1,1,12.05-12.05A12.07,12.07,0,0,1,93.86,24.6Z"/><path class="cls-2" d="M93.86,1A11.55,11.55,0,1,1,82.31,12.55,11.55,11.55,0,0,1,93.86,1m0-1a12.55,12.55,0,1,0,12.55,12.55A12.57,12.57,0,0,0,93.86,0Z"/><path d="M101,16.67H86.73L93.86,4.31ZM89.66,15h8.41L93.86,7.69Z"/></g></g></svg>