<svg xmlns="http://www.w3.org/2000/svg" xmlns:xlink="http://www.w3.org/1999/xlink" width="50.21" height="46.35" viewBox="0 0 50.21 46.35"><defs><style>.cls-1{fill:none;}.cls-2{clip-path:url(#clip-path);}.cls-3{fill:#ebebeb;}.cls-4{fill:#b2b2b2;}.cls-5{fill:#e5e5e5;}.cls-6{fill:#ccc;}</style><clipPath id="clip-path"><circle class="cls-1" cx="24.31" cy="23.47" r="22.4"/></clipPath></defs><title>analog-pressed</title><g id="Layer_2" data-name="Layer 2"><g id="Layer_6" data-name="Layer 6"><g id="_Group_" data-name="&lt;Group&gt;"><g class="cls-2"><rect class="cls-1" x="46.35" width="3.86" height="3.86"/><rect class="cls-3" x="46.35" width="3.86" height="3.86"/><polygon class="cls-4" points="50.21 0 48.28 1.93 46.35 0 50.21 0"/><polygon class="cls-5" points="50.21 3.86 48.28 1.93 50.21 0 50.21 3.86"/><polygon class="cls-6" points="46.35 3.86 48.28 1.93 46.35 0 46.35 3.86"/><rect class="cls-1" x="46.35" y="3.86" width="3.86" height="3.86"/><rect class="cls-3" x="46.35" y="3.86" width="3.86" height="3.86"/><polygon class="cls-4" points="50.21 3.86 48.28 5.79 46.35 3.86 50.21 3.86"/><polygon class="cls-5" points="50.21 7.72 48.28 5.79 50.21 3.86 50.21 7.72"/><polygon class="cls-6" points="46.35 7.72 48.28 5.79 46.35 3.86 46.35 7.72"/><rect class="cls-1" x="46.35" y="7.72" width="3.86" height="3.86"/><rect class="cls-3" x="46.35" y="7.72" width="3.86" height="3.86"/><polygon class="cls-4" points="50.21 7.72 48.28 9.65 46.35 7.72 50.21 7.72"/><polygon class="cls-5" points="50.21 11.59 48.28 9.65 50.21 7.72 50.21 11.59"/><polygon class="cls-6" points="46.35 11.59 48.28 9.65 46.35 7.72 46.35 11.59"/><rect class="cls-1" x="46.35" y="11.59" width="3.86" height="3.86"/><rect class="cls-3" x="46.35" y="11.59" width="3.86" height="3.86"/><polygon class="cls-4" points="50.21 11.59 48.28 13.52 46.35 11.59 50.21 11.59"/><polygon class="cls-5" points="50.21 15.45 48.28 13.52 50.21 11.59 50.21 15.45"/><polygon class="cls-6" points="46.35 15.45 48.28 13.52 46.35 11.59 46.35 15.45"/><rect class="cls-1" x="46.35" y="15.45" width="3.86" height="3.86"/><rect class="cls-3" x="46.35" y="15.45" width="3.86" height="3.86"/><polygon class="cls-4" points="50.21 15.45 48.28 17.38 46.35 15.45 50.21 15.45"/><polygon class="cls-5" points="50.21 19.31 48.28 17.38 50.21 15.45 50.21 19.31"/><polygon class="cls-6" points="46.35 19.31 48.28 17.38 46.35 15.45 46.35 19.31"/><rect class="cls-1" x="46.35" y="19.31" width="3.86" height="3.86"/><rect class="cls-3" x="46.35" y="19.31" width="3.86" height="3.86"/><polygon class="cls-4" points="50.21 19.31 48.28 21.24 46.35 19.31 50.21 19.31"/><polygon class="cls-5" points="50.21 23.17 48.28 21.24 50.21 19.31 50.21 23.17"/><polygon class="cls-6" points="46.35 23.17 48.28 21.24 46.35 19.31 46.35 23.17"/><rect class="cls-1" x="46.35" y="23.17" width="3.86" height="3.86"/><rect class="cls-3" x="46.35" y="23.17" width="3.86" height="3.86"/><polygon class="cls-4" points="50.21 23.17 48.28 25.1 46.35 23.17 50.21 23.17"/><polygon class="cls-5" points="50.21 27.04 48.28 25.1 50.21 23.17 50.21 27.04"/><polygon class="cls-6" points="46.35 27.04 48.28 25.1 46.35 23.17 46.35 27.04"/><rect class="cls-1" x="46.35" y="27.04" width="3.86" height="3.86"/><rect class="cls-3" x="46.35" y="27.04" width="3.86" height="3.86"/><polygon class="cls-4" points="50.21 27.04 48.28 28.97 46.35 27.04 50.21 27.04"/><polygon class="cls-5" points="50.21 30.9 48.28 28.97 50.21 27.04 50.21 30.9"/><polygon class="cls-6" points="46.35 30.9 48.28 28.97 46.35 27.04 46.35 30.9"/><rect class="cls-1" x="46.35" y="30.9" width="3.86" height="3.86"/><rect class="cls-3" x="46.35" y="30.9" width="3.86" height="3.86"/><polygon class="cls-4" points="50.21 30.9 48.28 32.83 46.35 30.9 50.21 30.9"/><polygon class="cls-5" points="50.21 34.76 48.28 32.83 50.21 30.9 50.21 34.76"/><polygon class="cls-6" points="46.35 34.76 48.28 32.83 46.35 30.9 46.35 34.76"/><rect class="cls-1" x="46.35" y="34.76" width="3.86" height="3.86"/><rect class="cls-3" x="46.35" y="34.76" width="3.86" height="3.86"/><polygon class="cls-4" points="50.21 34.76 48.28 36.69 46.35 34.76 50.21 34.76"/><polygon class="cls-5" points="50.21 38.62 48.28 36.69 50.21 34.76 50.21 38.62"/><polygon class="cls-6" points="46.35 38.62 48.28 36.69 46.35 34.76 46.35 38.62"/><rect class="cls-1" x="46.35" y="38.62" width="3.86" height="3.86"/><rect class="cls-3" x="46.35" y="38.62" width="3.86" height="3.86"/><polygon class="cls-4" points="50.21 38.62 48.28 40.55 46.35 38.62 50.21 38.62"/><polygon class="cls-5" points="50.21 42.48 48.28 40.55 50.21 38.62 50.21 42.48"/><polygon class="cls-6" points="46.35 42.48 48.28 40.55 46.35 38.62 46.35 42.48"/><rect class="cls-1" x="46.35" y="42.48" width="3.86" height="3.86"/><rect class="cls-3" x="46.35" y="42.48" width="3.86" height="3.86"/><polygon class="cls-4" points="50.21 42.48 48.28 44.41 46.35 42.48 50.21 42.48"/><polygon class="cls-5" points="50.21 46.35 48.28 44.41 50.21 42.48 50.21 46.35"/><polygon class="cls-6" points="46.35 46.35 48.28 44.41 46.35 42.48 46.35 46.35"/><rect class="cls-1" x="42.48" width="3.86" height="3.86"/><rect class="cls-3" x="42.48" width="3.86" height="3.86"/><polygon class="cls-4" points="46.35 0 44.41 1.93 42.48 0 46.35 0"/><polygon class="cls-5" points="46.35 3.86 44.41 1.93 46.35 0 46.35 3.86"/><polygon class="cls-6" points="42.48 3.86 44.41 1.93 42.48 0 42.48 3.86"/><rect class="cls-1" x="42.48" y="3.86" width="3.86" height="3.86"/><rect class="cls-3" x="42.48" y="3.86" width="3.86" height="3.86"/><polygon class="cls-4" points="46.35 3.86 44.41 5.79 42.48 3.86 46.35 3.86"/><polygon class="cls-5" points="46.35 7.72 44.41 5.79 46.35 3.86 46.35 7.72"/><polygon class="cls-6" points="42.48 7.72 44.41 5.79 42.48 3.86 42.48 7.72"/><rect class="cls-1" x="42.48" y="7.72" width="3.86" height="3.86"/><rect class="cls-3" x="42.48" y="7.72" width="3.86" height="3.86"/><polygon class="cls-4" points="46.35 7.72 44.41 9.65 42.48 7.72 46.35 7.72"/><polygon class="cls-5" points="46.35 11.59 44.41 9.65 46.35 7.72 46.35 11.59"/><polygon class="cls-6" points="42.48 11.59 44.41 9.65 42.48 7.72 42.48 11.59"/><rect class="cls-1" x="42.48" y="11.59" width="3.86" height="3.86"/><rect class="cls-3" x="42.48" y="11.59" width="3.86" height="3.86"/><polygon class="cls-4" points="46.35 11.59 44.41 13.52 42.48 11.59 46.35 11.59"/><polygon class="cls-5" points="46.35 15.45 44.41 13.52 46.35 11.59 46.35 15.45"/><polygon class="cls-6" points="42.48 15.45 44.41 13.52 42.48 11.59 42.48 15.45"/><rect class="cls-1" x="42.48" y="15.45" width="3.86" height="3.86"/><rect class="cls-3" x="42.48" y="15.45" width="3.86" height="3.86"/><polygon class="cls-4" points="46.35 15.45 44.41 17.38 42.48 15.45 46.35 15.45"/><polygon class="cls-5" points="46.35 19.31 44.41 17.38 46.35 15.45 46.35 19.31"/><polygon class="cls-6" points="42.48 19.31 44.41 17.38 42.48 15.45 42.48 19.31"/><rect class="cls-1" x="42.48" y="19.31" width="3.86" height="3.86"/><rect class="cls-3" x="42.48" y="19.31" width="3.86" height="3.86"/><polygon class="cls-4" points="46.35 19.31 44.41 21.24 42.48 19.31 46.35 19.31"/><polygon class="cls-5" points="46.35 23.17 44.41 21.24 46.35 19.31 46.35 23.17"/><polygon class="cls-6" points="42.48 23.17 44.41 21.24 42.48 19.31 42.48 23.17"/><rect class="cls-1" x="42.48" y="23.17" width="3.86" height="3.86"/><rect class="cls-3" x="42.48" y="23.17" width="3.86" height="3.86"/><polygon class="cls-4" points="46.35 23.17 44.41 25.1 42.48 23.17 46.35 23.17"/><polygon class="cls-5" points="46.35 27.04 44.41 25.1 46.35 23.17 46.35 27.04"/><polygon class="cls-6" points="42.48 27.04 44.41 25.1 42.48 23.17 42.48 27.04"/><rect class="cls-1" x="42.48" y="27.04" width="3.86" height="3.86"/><rect class="cls-3" x="42.48" y="27.04" width="3.86" height="3.86"/><polygon class="cls-4" points="46.35 27.04 44.41 28.97 42.48 27.04 46.35 27.04"/><polygon class="cls-5" points="46.35 30.9 44.41 28.97 46.35 27.04 46.35 30.9"/><polygon class="cls-6" points="42.48 30.9 44.41 28.97 42.48 27.04 42.48 30.9"/><rect class="cls-1" x="42.48" y="30.9" width="3.86" height="3.86"/><rect class="cls-3" x="42.48" y="30.9" width="3.86" height="3.86"/><polygon class="cls-4" points="46.35 30.9 44.41 32.83 42.48 30.9 46.35 30.9"/><polygon class="cls-5" points="46.35 34.76 44.41 32.83 46.35 30.9 46.35 34.76"/><polygon class="cls-6" points="42.48 34.76 44.41 32.83 42.48 30.9 42.48 34.76"/><rect class="cls-1" x="42.48" y="34.76" width="3.86" height="3.86"/><rect class="cls-3" x="42.48" y="34.76" width="3.86" height="3.86"/><polygon class="cls-4" points="46.35 34.76 44.41 36.69 42.48 34.76 46.35 34.76"/><polygon class="cls-5" points="46.35 38.62 44.41 36.69 46.35 34.76 46.35 38.62"/><polygon class="cls-6" points="42.48 38.62 44.41 36.69 42.48 34.76 42.48 38.62"/><rect class="cls-1" x="42.48" y="38.62" width="3.86" height="3.86"/><rect class="cls-3" x="42.48" y="38.62" width="3.86" height="3.86"/><polygon class="cls-4" points="46.35 38.62 44.41 40.55 42.48 38.62 46.35 38.62"/><polygon class="cls-5" points="46.35 42.48 44.41 40.55 46.35 38.62 46.35 42.48"/><polygon class="cls-6" points="42.48 42.48 44.41 40.55 42.48 38.62 42.48 42.48"/><rect class="cls-1" x="42.48" y="42.48" width="3.86" height="3.86"/><rect class="cls-3" x="42.48" y="42.48" width="3.86" height="3.86"/><polygon class="cls-4" points="46.35 42.48 44.41 44.41 42.48 42.48 46.35 42.48"/><polygon class="cls-5" points="46.35 46.35 44.41 44.41 46.35 42.48 46.35 46.35"/><polygon class="cls-6" points="42.48 46.35 44.41 44.41 42.48 42.48 42.48 46.35"/><rect class="cls-1" x="38.62" width="3.86" height="3.86"/><rect class="cls-3" x="38.62" width="3.86" height="3.86"/><polygon class="cls-4" points="42.48 0 40.55 1.93 38.62 0 42.48 0"/><polygon class="cls-5" points="42.48 3.86 40.55 1.93 42.48 0 42.48 3.86"/><polygon class="cls-6" points="38.62 3.86 40.55 1.93 38.62 0 38.62 3.86"/><rect class="cls-1" x="38.62" y="3.86" width="3.86" height="3.86"/><rect class="cls-3" x="38.62" y="3.86" width="3.86" height="3.86"/><polygon class="cls-4" points="42.48 3.86 40.55 5.79 38.62 3.86 42.48 3.86"/><polygon class="cls-5" points="42.48 7.72 40.55 5.79 42.48 3.86 42.48 7.72"/><polygon class="cls-6" points="38.62 7.72 40.55 5.79 38.62 3.86 38.62 7.72"/><rect class="cls-1" x="38.62" y="7.72" width="3.86" height="3.86"/><rect class="cls-3" x="38.62" y="7.72" width="3.86" height="3.86"/><polygon class="cls-4" points="42.48 7.72 40.55 9.65 38.62 7.72 42.48 7.72"/><polygon class="cls-5" points="42.48 11.59 40.55 9.65 42.48 7.72 42.48 11.59"/><polygon class="cls-6" points="38.62 11.59 40.55 9.65 38.62 7.72 38.62 11.59"/><rect class="cls-1" x="38.62" y="11.59" width="3.86" height="3.86"/><rect class="cls-3" x="38.62" y="11.59" width="3.86" height="3.86"/><polygon class="cls-4" points="42.48 11.59 40.55 13.52 38.62 11.59 42.48 11.59"/><polygon class="cls-5" points="42.48 15.45 40.55 13.52 42.48 11.59 42.48 15.45"/><polygon class="cls-6" points="38.62 15.45 40.55 13.52 38.62 11.59 38.62 15.45"/><rect class="cls-1" x="38.62" y="15.45" width="3.86" height="3.86"/><rect class="cls-3" x="38.62" y="15.45" width="3.86" height="3.86"/><polygon class="cls-4" points="42.48 15.45 40.55 17.38 38.62 15.45 42.48 15.45"/><polygon class="cls-5" points="42.48 19.31 40.55 17.38 42.48 15.45 42.48 19.31"/><polygon class="cls-6" points="38.62 19.31 40.55 17.38 38.62 15.45 38.62 19.31"/><rect class="cls-1" x="38.62" y="19.31" width="3.86" height="3.86"/><rect class="cls-3" x="38.62" y="19.31" width="3.86" height="3.86"/><polygon class="cls-4" points="42.48 19.31 40.55 21.24 38.62 19.31 42.48 19.31"/><polygon class="cls-5" points="42.48 23.17 40.55 21.24 42.48 19.31 42.48 23.17"/><polygon class="cls-6" points="38.62 23.17 40.55 21.24 38.62 19.31 38.62 23.17"/><rect class="cls-1" x="38.62" y="23.17" width="3.86" height="3.86"/><rect class="cls-3" x="38.62" y="23.17" width="3.86" height="3.86"/><polygon class="cls-4" points="42.48 23.17 40.55 25.1 38.62 23.17 42.48 23.17"/><polygon class="cls-5" points="42.48 27.04 40.55 25.1 42.48 23.17 42.48 27.04"/><polygon class="cls-6" points="38.62 27.04 40.55 25.1 38.62 23.17 38.62 27.04"/><rect class="cls-1" x="38.62" y="27.04" width="3.86" height="3.86"/><rect class="cls-3" x="38.62" y="27.04" width="3.86" height="3.86"/><polygon class="cls-4" points="42.48 27.04 40.55 28.97 38.62 27.04 42.48 27.04"/><polygon class="cls-5" points="42.48 30.9 40.55 28.97 42.48 27.04 42.48 30.9"/><polygon class="cls-6" points="38.62 30.9 40.55 28.97 38.62 27.04 38.62 30.9"/><rect class="cls-1" x="38.62" y="30.9" width="3.86" height="3.86"/><rect class="cls-3" x="38.62" y="30.9" width="3.86" height="3.86"/><polygon class="cls-4" points="42.48 30.9 40.55 32.83 38.62 30.9 42.48 30.9"/><polygon class="cls-5" points="42.48 34.76 40.55 32.83 42.48 30.9 42.48 34.76"/><polygon class="cls-6" points="38.62 34.76 40.55 32.83 38.62 30.9 38.62 34.76"/><rect class="cls-1" x="38.62" y="34.76" width="3.86" height="3.86"/><rect class="cls-3" x="38.62" y="34.76" width="3.86" height="3.86"/><polygon class="cls-4" points="42.48 34.76 40.55 36.69 38.62 34.76 42.48 34.76"/><polygon class="cls-5" points="42.48 38.62 40.55 36.69 42.48 34.76 42.48 38.62"/><polygon class="cls-6" points="38.62 38.62 40.55 36.69 38.62 34.76 38.62 38.62"/><rect class="cls-1" x="38.62" y="38.62" width="3.86" height="3.86"/><rect class="cls-3" x="38.62" y="38.62" width="3.86" height="3.86"/><polygon class="cls-4" points="42.48 38.62 40.55 40.55 38.62 38.62 42.48 38.62"/><polygon class="cls-5" points="42.48 42.48 40.55 40.55 42.48 38.62 42.48 42.48"/><polygon class="cls-6" points="38.62 42.48 40.55 40.55 38.62 38.62 38.62 42.48"/><rect class="cls-1" x="38.62" y="42.48" width="3.86" height="3.86"/><rect class="cls-3" x="38.62" y="42.48" width="3.86" height="3.86"/><polygon class="cls-4" points="42.48 42.48 40.55 44.41 38.62 42.48 42.48 42.48"/><polygon class="cls-5" points="42.48 46.35 40.55 44.41 42.48 42.48 42.48 46.35"/><polygon class="cls-6" points="38.62 46.35 40.55 44.41 38.62 42.48 38.62 46.35"/><rect class="cls-1" x="34.76" width="3.86" height="3.86"/><rect class="cls-3" x="34.76" width="3.86" height="3.86"/><polygon class="cls-4" points="38.62 0 36.69 1.93 34.76 0 38.62 0"/><polygon class="cls-5" points="38.62 3.86 36.69 1.93 38.62 0 38.62 3.86"/><polygon class="cls-6" points="34.76 3.86 36.69 1.93 34.76 0 34.76 3.86"/><rect class="cls-1" x="34.76" y="3.86" width="3.86" height="3.86"/><rect class="cls-3" x="34.76" y="3.86" width="3.86" height="3.86"/><polygon class="cls-4" points="38.62 3.86 36.69 5.79 34.76 3.86 38.62 3.86"/><polygon class="cls-5" points="38.62 7.72 36.69 5.79 38.62 3.86 38.62 7.72"/><polygon class="cls-6" points="34.76 7.72 36.69 5.79 34.76 3.86 34.76 7.72"/><rect class="cls-1" x="34.76" y="7.72" width="3.86" height="3.86"/><rect class="cls-3" x="34.76" y="7.72" width="3.86" height="3.86"/><polygon class="cls-4" points="38.62 7.72 36.69 9.65 34.76 7.72 38.62 7.72"/><polygon class="cls-5" points="38.62 11.59 36.69 9.65 38.62 7.72 38.62 11.59"/><polygon class="cls-6" points="34.76 11.59 36.69 9.65 34.76 7.72 34.76 11.59"/><rect class="cls-1" x="34.76" y="11.59" width="3.86" height="3.86"/><rect class="cls-3" x="34.76" y="11.59" width="3.86" height="3.86"/><polygon class="cls-4" points="38.62 11.59 36.69 13.52 34.76 11.59 38.62 11.59"/><polygon class="cls-5" points="38.62 15.45 36.69 13.52 38.62 11.59 38.62 15.45"/><polygon class="cls-6" points="34.76 15.45 36.69 13.52 34.76 11.59 34.76 15.45"/><rect class="cls-1" x="34.76" y="15.45" width="3.86" height="3.86"/><rect class="cls-3" x="34.76" y="15.45" width="3.86" height="3.86"/><polygon class="cls-4" points="38.62 15.45 36.69 17.38 34.76 15.45 38.62 15.45"/><polygon class="cls-5" points="38.62 19.31 36.69 17.38 38.62 15.45 38.62 19.31"/><polygon class="cls-6" points="34.76 19.31 36.69 17.38 34.76 15.45 34.76 19.31"/><rect class="cls-1" x="34.76" y="19.31" width="3.86" height="3.86"/><rect class="cls-3" x="34.76" y="19.31" width="3.86" height="3.86"/><polygon class="cls-4" points="38.62 19.31 36.69 21.24 34.76 19.31 38.62 19.31"/><polygon class="cls-5" points="38.62 23.17 36.69 21.24 38.62 19.31 38.62 23.17"/><polygon class="cls-6" points="34.76 23.17 36.69 21.24 34.76 19.31 34.76 23.17"/><rect class="cls-1" x="34.76" y="23.17" width="3.86" height="3.86"/><rect class="cls-3" x="34.76" y="23.17" width="3.86" height="3.86"/><polygon class="cls-4" points="38.62 23.17 36.69 25.1 34.76 23.17 38.62 23.17"/><polygon class="cls-5" points="38.62 27.04 36.69 25.1 38.62 23.17 38.62 27.04"/><polygon class="cls-6" points="34.76 27.04 36.69 25.1 34.76 23.17 34.76 27.04"/><rect class="cls-1" x="34.76" y="27.04" width="3.86" height="3.86"/><rect class="cls-3" x="34.76" y="27.04" width="3.86" height="3.86"/><polygon class="cls-4" points="38.62 27.04 36.69 28.97 34.76 27.04 38.62 27.04"/><polygon class="cls-5" points="38.62 30.9 36.69 28.97 38.62 27.04 38.62 30.9"/><polygon class="cls-6" points="34.76 30.9 36.69 28.97 34.76 27.04 34.76 30.9"/><rect class="cls-1" x="34.76" y="30.9" width="3.86" height="3.86"/><rect class="cls-3" x="34.76" y="30.9" width="3.86" height="3.86"/><polygon class="cls-4" points="38.62 30.9 36.69 32.83 34.76 30.9 38.62 30.9"/><polygon class="cls-5" points="38.62 34.76 36.69 32.83 38.62 30.9 38.62 34.76"/><polygon class="cls-6" points="34.76 34.76 36.69 32.83 34.76 30.9 34.76 34.76"/><rect class="cls-1" x="34.76" y="34.76" width="3.86" height="3.86"/><rect class="cls-3" x="34.76" y="34.76" width="3.86" height="3.86"/><polygon class="cls-4" points="38.62 34.76 36.69 36.69 34.76 34.76 38.62 34.76"/><polygon class="cls-5" points="38.62 38.62 36.69 36.69 38.62 34.76 38.62 38.62"/><polygon class="cls-6" points="34.76 38.62 36.69 36.69 34.76 34.76 34.76 38.62"/><rect class="cls-1" x="34.76" y="38.62" width="3.86" height="3.86"/><rect class="cls-3" x="34.76" y="38.62" width="3.86" height="3.86"/><polygon class="cls-4" points="38.62 38.62 36.69 40.55 34.76 38.62 38.62 38.62"/><polygon class="cls-5" points="38.62 42.48 36.69 40.55 38.62 38.62 38.62 42.48"/><polygon class="cls-6" points="34.76 42.48 36.69 40.55 34.76 38.62 34.76 42.48"/><rect class="cls-1" x="34.76" y="42.48" width="3.86" height="3.86"/><rect class="cls-3" x="34.76" y="42.48" width="3.86" height="3.86"/><polygon class="cls-4" points="38.62 42.48 36.69 44.41 34.76 42.48 38.62 42.48"/><polygon class="cls-5" points="38.62 46.35 36.69 44.41 38.62 42.48 38.62 46.35"/><polygon class="cls-6" points="34.76 46.35 36.69 44.41 34.76 42.48 34.76 46.35"/><rect class="cls-1" x="30.9" width="3.86" height="3.86"/><rect class="cls-3" x="30.9" width="3.86" height="3.86"/><polygon class="cls-4" points="34.76 0 32.83 1.93 30.9 0 34.76 0"/><polygon class="cls-5" points="34.76 3.86 32.83 1.93 34.76 0 34.76 3.86"/><polygon class="cls-6" points="30.9 3.86 32.83 1.93 30.9 0 30.9 3.86"/><rect class="cls-1" x="30.9" y="3.86" width="3.86" height="3.86"/><rect class="cls-3" x="30.9" y="3.86" width="3.86" height="3.86"/><polygon class="cls-4" points="34.76 3.86 32.83 5.79 30.9 3.86 34.76 3.86"/><polygon class="cls-5" points="34.76 7.72 32.83 5.79 34.76 3.86 34.76 7.72"/><polygon class="cls-6" points="30.9 7.72 32.83 5.79 30.9 3.86 30.9 7.72"/><rect class="cls-1" x="30.9" y="7.72" width="3.86" height="3.86"/><rect class="cls-3" x="30.9" y="7.72" width="3.86" height="3.86"/><polygon class="cls-4" points="34.76 7.72 32.83 9.65 30.9 7.72 34.76 7.72"/><polygon class="cls-5" points="34.76 11.59 32.83 9.65 34.76 7.72 34.76 11.59"/><polygon class="cls-6" points="30.9 11.59 32.83 9.65 30.9 7.72 30.9 11.59"/><rect class="cls-1" x="30.9" y="11.59" width="3.86" height="3.86"/><rect class="cls-3" x="30.9" y="11.59" width="3.86" height="3.86"/><polygon class="cls-4" points="34.76 11.59 32.83 13.52 30.9 11.59 34.76 11.59"/><polygon class="cls-5" points="34.76 15.45 32.83 13.52 34.76 11.59 34.76 15.45"/><polygon class="cls-6" points="30.9 15.45 32.83 13.52 30.9 11.59 30.9 15.45"/><rect class="cls-1" x="30.9" y="15.45" width="3.86" height="3.86"/><rect class="cls-3" x="30.9" y="15.45" width="3.86" height="3.86"/><polygon class="cls-4" points="34.76 15.45 32.83 17.38 30.9 15.45 34.76 15.45"/><polygon class="cls-5" points="34.76 19.31 32.83 17.38 34.76 15.45 34.76 19.31"/><polygon class="cls-6" points="30.9 19.31 32.83 17.38 30.9 15.45 30.9 19.31"/><rect class="cls-1" x="30.9" y="19.31" width="3.86" height="3.86"/><rect class="cls-3" x="30.9" y="19.31" width="3.86" height="3.86"/><polygon class="cls-4" points="34.76 19.31 32.83 21.24 30.9 19.31 34.76 19.31"/><polygon class="cls-5" points="34.76 23.17 32.83 21.24 34.76 19.31 34.76 23.17"/><polygon class="cls-6" points="30.9 23.17 32.83 21.24 30.9 19.31 30.9 23.17"/><rect class="cls-1" x="30.9" y="23.17" width="3.86" height="3.86"/><rect class="cls-3" x="30.9" y="23.17" width="3.86" height="3.86"/><polygon class="cls-4" points="34.76 23.17 32.83 25.1 30.9 23.17 34.76 23.17"/><polygon class="cls-5" points="34.76 27.04 32.83 25.1 34.76 23.17 34.76 27.04"/><polygon class="cls-6" points="30.9 27.04 32.83 25.1 30.9 23.17 30.9 27.04"/><rect class="cls-1" x="30.9" y="27.04" width="3.86" height="3.86"/><rect class="cls-3" x="30.9" y="27.04" width="3.86" height="3.86"/><polygon class="cls-4" points="34.76 27.04 32.83 28.97 30.9 27.04 34.76 27.04"/><polygon class="cls-5" points="34.76 30.9 32.83 28.97 34.76 27.04 34.76 30.9"/><polygon class="cls-6" points="30.9 30.9 32.83 28.97 30.9 27.04 30.9 30.9"/><rect class="cls-1" x="30.9" y="30.9" width="3.86" height="3.86"/><rect class="cls-3" x="30.9" y="30.9" width="3.86" height="3.86"/><polygon class="cls-4" points="34.76 30.9 32.83 32.83 30.9 30.9 34.76 30.9"/><polygon class="cls-5" points="34.76 34.76 32.83 32.83 34.76 30.9 34.76 34.76"/><polygon class="cls-6" points="30.9 34.76 32.83 32.83 30.9 30.9 30.9 34.76"/><rect class="cls-1" x="30.9" y="34.76" width="3.86" height="3.86"/><rect class="cls-3" x="30.9" y="34.76" width="3.86" height="3.86"/><polygon class="cls-4" points="34.76 34.76 32.83 36.69 30.9 34.76 34.76 34.76"/><polygon class="cls-5" points="34.76 38.62 32.83 36.69 34.76 34.76 34.76 38.62"/><polygon class="cls-6" points="30.9 38.62 32.83 36.69 30.9 34.76 30.9 38.62"/><rect class="cls-1" x="30.9" y="38.62" width="3.86" height="3.86"/><rect class="cls-3" x="30.9" y="38.62" width="3.86" height="3.86"/><polygon class="cls-4" points="34.76 38.62 32.83 40.55 30.9 38.62 34.76 38.62"/><polygon class="cls-5" points="34.76 42.48 32.83 40.55 34.76 38.62 34.76 42.48"/><polygon class="cls-6" points="30.9 42.48 32.83 40.55 30.9 38.62 30.9 42.48"/><rect class="cls-1" x="30.9" y="42.48" width="3.86" height="3.86"/><rect class="cls-3" x="30.9" y="42.48" width="3.86" height="3.86"/><polygon class="cls-4" points="34.76 42.48 32.83 44.41 30.9 42.48 34.76 42.48"/><polygon class="cls-5" points="34.76 46.35 32.83 44.41 34.76 42.48 34.76 46.35"/><polygon class="cls-6" points="30.9 46.35 32.83 44.41 30.9 42.48 30.9 46.35"/><rect class="cls-1" x="27.04" width="3.86" height="3.86"/><rect class="cls-3" x="27.04" width="3.86" height="3.86"/><polygon class="cls-4" points="30.9 0 28.97 1.93 27.04 0 30.9 0"/><polygon class="cls-5" points="30.9 3.86 28.97 1.93 30.9 0 30.9 3.86"/><polygon class="cls-6" points="27.04 3.86 28.97 1.93 27.04 0 27.04 3.86"/><rect class="cls-1" x="27.04" y="3.86" width="3.86" height="3.86"/><rect class="cls-3" x="27.04" y="3.86" width="3.86" height="3.86"/><polygon class="cls-4" points="30.9 3.86 28.97 5.79 27.04 3.86 30.9 3.86"/><polygon class="cls-5" points="30.9 7.72 28.97 5.79 30.9 3.86 30.9 7.72"/><polygon class="cls-6" points="27.04 7.72 28.97 5.79 27.04 3.86 27.04 7.72"/><rect class="cls-1" x="27.04" y="7.72" width="3.86" height="3.86"/><rect class="cls-3" x="27.04" y="7.72" width="3.86" height="3.86"/><polygon class="cls-4" points="30.9 7.72 28.97 9.65 27.04 7.72 30.9 7.72"/><polygon class="cls-5" points="30.9 11.59 28.97 9.65 30.9 7.72 30.9 11.59"/><polygon class="cls-6" points="27.04 11.59 28.97 9.65 27.04 7.72 27.04 11.59"/><rect class="cls-1" x="27.04" y="11.59" width="3.86" height="3.86"/><rect class="cls-3" x="27.04" y="11.59" width="3.86" height="3.86"/><polygon class="cls-4" points="30.9 11.59 28.97 13.52 27.04 11.59 30.9 11.59"/><polygon class="cls-5" points="30.9 15.45 28.97 13.52 30.9 11.59 30.9 15.45"/><polygon class="cls-6" points="27.04 15.45 28.97 13.52 27.04 11.59 27.04 15.45"/><rect class="cls-1" x="27.04" y="15.45" width="3.86" height="3.86"/><rect class="cls-3" x="27.04" y="15.45" width="3.86" height="3.86"/><polygon class="cls-4" points="30.9 15.45 28.97 17.38 27.04 15.45 30.9 15.45"/><polygon class="cls-5" points="30.9 19.31 28.97 17.38 30.9 15.45 30.9 19.31"/><polygon class="cls-6" points="27.04 19.31 28.97 17.38 27.04 15.45 27.04 19.31"/><rect class="cls-1" x="27.04" y="19.31" width="3.86" height="3.86"/><rect class="cls-3" x="27.04" y="19.31" width="3.86" height="3.86"/><polygon class="cls-4" points="30.9 19.31 28.97 21.24 27.04 19.31 30.9 19.31"/><polygon class="cls-5" points="30.9 23.17 28.97 21.24 30.9 19.31 30.9 23.17"/><polygon class="cls-6" points="27.04 23.17 28.97 21.24 27.04 19.31 27.04 23.17"/><rect class="cls-1" x="27.04" y="23.17" width="3.86" height="3.86"/><rect class="cls-3" x="27.04" y="23.17" width="3.86" height="3.86"/><polygon class="cls-4" points="30.9 23.17 28.97 25.1 27.04 23.17 30.9 23.17"/><polygon class="cls-5" points="30.9 27.04 28.97 25.1 30.9 23.17 30.9 27.04"/><polygon class="cls-6" points="27.04 27.04 28.97 25.1 27.04 23.17 27.04 27.04"/><rect class="cls-1" x="27.04" y="27.04" width="3.86" height="3.86"/><rect class="cls-3" x="27.04" y="27.04" width="3.86" height="3.86"/><polygon class="cls-4" points="30.9 27.04 28.97 28.97 27.04 27.04 30.9 27.04"/><polygon class="cls-5" points="30.9 30.9 28.97 28.97 30.9 27.04 30.9 30.9"/><polygon class="cls-6" points="27.04 30.9 28.97 28.97 27.04 27.04 27.04 30.9"/><rect class="cls-1" x="27.04" y="30.9" width="3.86" height="3.86"/><rect class="cls-3" x="27.04" y="30.9" width="3.86" height="3.86"/><polygon class="cls-4" points="30.9 30.9 28.97 32.83 27.04 30.9 30.9 30.9"/><polygon class="cls-5" points="30.9 34.76 28.97 32.83 30.9 30.9 30.9 34.76"/><polygon class="cls-6" points="27.04 34.76 28.97 32.83 27.04 30.9 27.04 34.76"/><rect class="cls-1" x="27.04" y="34.76" width="3.86" height="3.86"/><rect class="cls-3" x="27.04" y="34.76" width="3.86" height="3.86"/><polygon class="cls-4" points="30.9 34.76 28.97 36.69 27.04 34.76 30.9 34.76"/><polygon class="cls-5" points="30.9 38.62 28.97 36.69 30.9 34.76 30.9 38.62"/><polygon class="cls-6" points="27.04 38.62 28.97 36.69 27.04 34.76 27.04 38.62"/><rect class="cls-1" x="27.04" y="38.62" width="3.86" height="3.86"/><rect class="cls-3" x="27.04" y="38.62" width="3.86" height="3.86"/><polygon class="cls-4" points="30.9 38.62 28.97 40.55 27.04 38.62 30.9 38.62"/><polygon class="cls-5" points="30.9 42.48 28.97 40.55 30.9 38.62 30.9 42.48"/><polygon class="cls-6" points="27.04 42.48 28.97 40.55 27.04 38.62 27.04 42.48"/><rect class="cls-1" x="27.04" y="42.48" width="3.86" height="3.86"/><rect class="cls-3" x="27.04" y="42.48" width="3.86" height="3.86"/><polygon class="cls-4" points="30.9 42.48 28.97 44.41 27.04 42.48 30.9 42.48"/><polygon class="cls-5" points="30.9 46.35 28.97 44.41 30.9 42.48 30.9 46.35"/><polygon class="cls-6" points="27.04 46.35 28.97 44.41 27.04 42.48 27.04 46.35"/><rect class="cls-1" x="23.17" width="3.86" height="3.86"/><rect class="cls-3" x="23.17" width="3.86" height="3.86"/><polygon class="cls-4" points="27.04 0 25.1 1.93 23.17 0 27.04 0"/><polygon class="cls-5" points="27.04 3.86 25.1 1.93 27.04 0 27.04 3.86"/><polygon class="cls-6" points="23.17 3.86 25.1 1.93 23.17 0 23.17 3.86"/><rect class="cls-1" x="23.17" y="3.86" width="3.86" height="3.86"/><rect class="cls-3" x="23.17" y="3.86" width="3.86" height="3.86"/><polygon class="cls-4" points="27.04 3.86 25.1 5.79 23.17 3.86 27.04 3.86"/><polygon class="cls-5" points="27.04 7.72 25.1 5.79 27.04 3.86 27.04 7.72"/><polygon class="cls-6" points="23.17 7.72 25.1 5.79 23.17 3.86 23.17 7.72"/><rect class="cls-1" x="23.17" y="7.72" width="3.86" height="3.86"/><rect class="cls-3" x="23.17" y="7.72" width="3.86" height="3.86"/><polygon class="cls-4" points="27.04 7.72 25.1 9.65 23.17 7.72 27.04 7.72"/><polygon class="cls-5" points="27.04 11.59 25.1 9.65 27.04 7.72 27.04 11.59"/><polygon class="cls-6" points="23.17 11.59 25.1 9.65 23.17 7.72 23.17 11.59"/><rect class="cls-1" x="23.17" y="11.59" width="3.86" height="3.86"/><rect class="cls-3" x="23.17" y="11.59" width="3.86" height="3.86"/><polygon class="cls-4" points="27.04 11.59 25.1 13.52 23.17 11.59 27.04 11.59"/><polygon class="cls-5" points="27.04 15.45 25.1 13.52 27.04 11.59 27.04 15.45"/><polygon class="cls-6" points="23.17 15.45 25.1 13.52 23.17 11.59 23.17 15.45"/><rect class="cls-1" x="23.17" y="15.45" width="3.86" height="3.86"/><rect class="cls-3" x="23.17" y="15.45" width="3.86" height="3.86"/><polygon class="cls-4" points="27.04 15.45 25.1 17.38 23.17 15.45 27.04 15.45"/><polygon class="cls-5" points="27.04 19.31 25.1 17.38 27.04 15.45 27.04 19.31"/><polygon class="cls-6" points="23.17 19.31 25.1 17.38 23.17 15.45 23.17 19.31"/><rect class="cls-1" x="23.17" y="19.31" width="3.86" height="3.86"/><rect class="cls-3" x="23.17" y="19.31" width="3.86" height="3.86"/><polygon class="cls-4" points="27.04 19.31 25.1 21.24 23.17 19.31 27.04 19.31"/><polygon class="cls-5" points="27.04 23.17 25.1 21.24 27.04 19.31 27.04 23.17"/><polygon class="cls-6" points="23.17 23.17 25.1 21.24 23.17 19.31 23.17 23.17"/><rect class="cls-1" x="23.17" y="23.17" width="3.86" height="3.86"/><rect class="cls-3" x="23.17" y="23.17" width="3.86" height="3.86"/><polygon class="cls-4" points="27.04 23.17 25.1 25.1 23.17 23.17 27.04 23.17"/><polygon class="cls-5" points="27.04 27.04 25.1 25.1 27.04 23.17 27.04 27.04"/><polygon class="cls-6" points="23.17 27.04 25.1 25.1 23.17 23.17 23.17 27.04"/><rect class="cls-1" x="23.17" y="27.04" width="3.86" height="3.86"/><rect class="cls-3" x="23.17" y="27.04" width="3.86" height="3.86"/><polygon class="cls-4" points="27.04 27.04 25.1 28.97 23.17 27.04 27.04 27.04"/><polygon class="cls-5" points="27.04 30.9 25.1 28.97 27.04 27.04 27.04 30.9"/><polygon class="cls-6" points="23.17 30.9 25.1 28.97 23.17 27.04 23.17 30.9"/><rect class="cls-1" x="23.17" y="30.9" width="3.86" height="3.86"/><rect class="cls-3" x="23.17" y="30.9" width="3.86" height="3.86"/><polygon class="cls-4" points="27.04 30.9 25.1 32.83 23.17 30.9 27.04 30.9"/><polygon class="cls-5" points="27.04 34.76 25.1 32.83 27.04 30.9 27.04 34.76"/><polygon class="cls-6" points="23.17 34.76 25.1 32.83 23.17 30.9 23.17 34.76"/><rect class="cls-1" x="23.17" y="34.76" width="3.86" height="3.86"/><rect class="cls-3" x="23.17" y="34.76" width="3.86" height="3.86"/><polygon class="cls-4" points="27.04 34.76 25.1 36.69 23.17 34.76 27.04 34.76"/><polygon class="cls-5" points="27.04 38.62 25.1 36.69 27.04 34.76 27.04 38.62"/><polygon class="cls-6" points="23.17 38.62 25.1 36.69 23.17 34.76 23.17 38.62"/><rect class="cls-1" x="23.17" y="38.62" width="3.86" height="3.86"/><rect class="cls-3" x="23.17" y="38.62" width="3.86" height="3.86"/><polygon class="cls-4" points="27.04 38.62 25.1 40.55 23.17 38.62 27.04 38.62"/><polygon class="cls-5" points="27.04 42.48 25.1 40.55 27.04 38.62 27.04 42.48"/><polygon class="cls-6" points="23.17 42.48 25.1 40.55 23.17 38.62 23.17 42.48"/><rect class="cls-1" x="23.17" y="42.48" width="3.86" height="3.86"/><rect class="cls-3" x="23.17" y="42.48" width="3.86" height="3.86"/><polygon class="cls-4" points="27.04 42.48 25.1 44.41 23.17 42.48 27.04 42.48"/><polygon class="cls-5" points="27.04 46.35 25.1 44.41 27.04 42.48 27.04 46.35"/><polygon class="cls-6" points="23.17 46.35 25.1 44.41 23.17 42.48 23.17 46.35"/><rect class="cls-1" x="19.31" width="3.86" height="3.86"/><rect class="cls-3" x="19.31" width="3.86" height="3.86"/><polygon class="cls-4" points="23.17 0 21.24 1.93 19.31 0 23.17 0"/><polygon class="cls-5" points="23.17 3.86 21.24 1.93 23.17 0 23.17 3.86"/><polygon class="cls-6" points="19.31 3.86 21.24 1.93 19.31 0 19.31 3.86"/><rect class="cls-1" x="19.31" y="3.86" width="3.86" height="3.86"/><rect class="cls-3" x="19.31" y="3.86" width="3.86" height="3.86"/><polygon class="cls-4" points="23.17 3.86 21.24 5.79 19.31 3.86 23.17 3.86"/><polygon class="cls-5" points="23.17 7.72 21.24 5.79 23.17 3.86 23.17 7.72"/><polygon class="cls-6" points="19.31 7.72 21.24 5.79 19.31 3.86 19.31 7.72"/><rect class="cls-1" x="19.31" y="7.72" width="3.86" height="3.86"/><rect class="cls-3" x="19.31" y="7.72" width="3.86" height="3.86"/><polygon class="cls-4" points="23.17 7.72 21.24 9.65 19.31 7.72 23.17 7.72"/><polygon class="cls-5" points="23.17 11.59 21.24 9.65 23.17 7.72 23.17 11.59"/><polygon class="cls-6" points="19.31 11.59 21.24 9.65 19.31 7.72 19.31 11.59"/><rect class="cls-1" x="19.31" y="11.59" width="3.86" height="3.86"/><rect class="cls-3" x="19.31" y="11.59" width="3.86" height="3.86"/><polygon class="cls-4" points="23.17 11.59 21.24 13.52 19.31 11.59 23.17 11.59"/><polygon class="cls-5" points="23.17 15.45 21.24 13.52 23.17 11.59 23.17 15.45"/><polygon class="cls-6" points="19.31 15.45 21.24 13.52 19.31 11.59 19.31 15.45"/><rect class="cls-1" x="19.31" y="15.45" width="3.86" height="3.86"/><rect class="cls-3" x="19.31" y="15.45" width="3.86" height="3.86"/><polygon class="cls-4" points="23.17 15.45 21.24 17.38 19.31 15.45 23.17 15.45"/><polygon class="cls-5" points="23.17 19.31 21.24 17.38 23.17 15.45 23.17 19.31"/><polygon class="cls-6" points="19.31 19.31 21.24 17.38 19.31 15.45 19.31 19.31"/><rect class="cls-1" x="19.31" y="19.31" width="3.86" height="3.86"/><rect class="cls-3" x="19.31" y="19.31" width="3.86" height="3.86"/><polygon class="cls-4" points="23.17 19.31 21.24 21.24 19.31 19.31 23.17 19.31"/><polygon class="cls-5" points="23.17 23.17 21.24 21.24 23.17 19.31 23.17 23.17"/><polygon class="cls-6" points="19.31 23.17 21.24 21.24 19.31 19.31 19.31 23.17"/><rect class="cls-1" x="19.31" y="23.17" width="3.86" height="3.86"/><rect class="cls-3" x="19.31" y="23.17" width="3.86" height="3.86"/><polygon class="cls-4" points="23.17 23.17 21.24 25.1 19.31 23.17 23.17 23.17"/><polygon class="cls-5" points="23.17 27.04 21.24 25.1 23.17 23.17 23.17 27.04"/><polygon class="cls-6" points="19.31 27.04 21.24 25.1 19.31 23.17 19.31 27.04"/><rect class="cls-1" x="19.31" y="27.04" width="3.86" height="3.86"/><rect class="cls-3" x="19.31" y="27.04" width="3.86" height="3.86"/><polygon class="cls-4" points="23.17 27.04 21.24 28.97 19.31 27.04 23.17 27.04"/><polygon class="cls-5" points="23.17 30.9 21.24 28.97 23.17 27.04 23.17 30.9"/><polygon class="cls-6" points="19.31 30.9 21.24 28.97 19.31 27.04 19.31 30.9"/><rect class="cls-1" x="19.31" y="30.9" width="3.86" height="3.86"/><rect class="cls-3" x="19.31" y="30.9" width="3.86" height="3.86"/><polygon class="cls-4" points="23.17 30.9 21.24 32.83 19.31 30.9 23.17 30.9"/><polygon class="cls-5" points="23.17 34.76 21.24 32.83 23.17 30.9 23.17 34.76"/><polygon class="cls-6" points="19.31 34.76 21.24 32.83 19.31 30.9 19.31 34.76"/><rect class="cls-1" x="19.31" y="34.76" width="3.86" height="3.86"/><rect class="cls-3" x="19.31" y="34.76" width="3.86" height="3.86"/><polygon class="cls-4" points="23.17 34.76 21.24 36.69 19.31 34.76 23.17 34.76"/><polygon class="cls-5" points="23.17 38.62 21.24 36.69 23.17 34.76 23.17 38.62"/><polygon class="cls-6" points="19.31 38.62 21.24 36.69 19.31 34.76 19.31 38.62"/><rect class="cls-1" x="19.31" y="38.62" width="3.86" height="3.86"/><rect class="cls-3" x="19.31" y="38.62" width="3.86" height="3.86"/><polygon class="cls-4" points="23.17 38.62 21.24 40.55 19.31 38.62 23.17 38.62"/><polygon class="cls-5" points="23.17 42.48 21.24 40.55 23.17 38.62 23.17 42.48"/><polygon class="cls-6" points="19.31 42.48 21.24 40.55 19.31 38.62 19.31 42.48"/><rect class="cls-1" x="19.31" y="42.48" width="3.86" height="3.86"/><rect class="cls-3" x="19.31" y="42.48" width="3.86" height="3.86"/><polygon class="cls-4" points="23.17 42.48 21.24 44.41 19.31 42.48 23.17 42.48"/><polygon class="cls-5" points="23.17 46.35 21.24 44.41 23.17 42.48 23.17 46.35"/><polygon class="cls-6" points="19.31 46.35 21.24 44.41 19.31 42.48 19.31 46.35"/><rect class="cls-1" x="15.45" width="3.86" height="3.86"/><rect class="cls-3" x="15.45" width="3.86" height="3.86"/><polygon class="cls-4" points="19.31 0 17.38 1.93 15.45 0 19.31 0"/><polygon class="cls-5" points="19.31 3.86 17.38 1.93 19.31 0 19.31 3.86"/><polygon class="cls-6" points="15.45 3.86 17.38 1.93 15.45 0 15.45 3.86"/><rect class="cls-1" x="15.45" y="3.86" width="3.86" height="3.86"/><rect class="cls-3" x="15.45" y="3.86" width="3.86" height="3.86"/><polygon class="cls-4" points="19.31 3.86 17.38 5.79 15.45 3.86 19.31 3.86"/><polygon class="cls-5" points="19.31 7.72 17.38 5.79 19.31 3.86 19.31 7.72"/><polygon class="cls-6" points="15.45 7.72 17.38 5.79 15.45 3.86 15.45 7.72"/><rect class="cls-1" x="15.45" y="7.72" width="3.86" height="3.86"/><rect class="cls-3" x="15.45" y="7.72" width="3.86" height="3.86"/><polygon class="cls-4" points="19.31 7.72 17.38 9.65 15.45 7.72 19.31 7.72"/><polygon class="cls-5" points="19.31 11.59 17.38 9.65 19.31 7.72 19.31 11.59"/><polygon class="cls-6" points="15.45 11.59 17.38 9.65 15.45 7.72 15.45 11.59"/><rect class="cls-1" x="15.45" y="11.59" width="3.86" height="3.86"/><rect class="cls-3" x="15.45" y="11.59" width="3.86" height="3.86"/><polygon class="cls-4" points="19.31 11.59 17.38 13.52 15.45 11.59 19.31 11.59"/><polygon class="cls-5" points="19.31 15.45 17.38 13.52 19.31 11.59 19.31 15.45"/><polygon class="cls-6" points="15.45 15.45 17.38 13.52 15.45 11.59 15.45 15.45"/><rect class="cls-1" x="15.45" y="15.45" width="3.86" height="3.86"/><rect class="cls-3" x="15.45" y="15.45" width="3.86" height="3.86"/><polygon class="cls-4" points="19.31 15.45 17.38 17.38 15.45 15.45 19.31 15.45"/><polygon class="cls-5" points="19.31 19.31 17.38 17.38 19.31 15.45 19.31 19.31"/><polygon class="cls-6" points="15.45 19.31 17.38 17.38 15.45 15.45 15.45 19.31"/><rect class="cls-1" x="15.45" y="19.31" width="3.86" height="3.86"/><rect class="cls-3" x="15.45" y="19.31" width="3.86" height="3.86"/><polygon class="cls-4" points="19.31 19.31 17.38 21.24 15.45 19.31 19.31 19.31"/><polygon class="cls-5" points="19.31 23.17 17.38 21.24 19.31 19.31 19.31 23.17"/><polygon class="cls-6" points="15.45 23.17 17.38 21.24 15.45 19.31 15.45 23.17"/><rect class="cls-1" x="15.45" y="23.17" width="3.86" height="3.86"/><rect class="cls-3" x="15.45" y="23.17" width="3.86" height="3.86"/><polygon class="cls-4" points="19.31 23.17 17.38 25.1 15.45 23.17 19.31 23.17"/><polygon class="cls-5" points="19.31 27.04 17.38 25.1 19.31 23.17 19.31 27.04"/><polygon class="cls-6" points="15.45 27.04 17.38 25.1 15.45 23.17 15.45 27.04"/><rect class="cls-1" x="15.45" y="27.04" width="3.86" height="3.86"/><rect class="cls-3" x="15.45" y="27.04" width="3.86" height="3.86"/><polygon class="cls-4" points="19.31 27.04 17.38 28.97 15.45 27.04 19.31 27.04"/><polygon class="cls-5" points="19.31 30.9 17.38 28.97 19.31 27.04 19.31 30.9"/><polygon class="cls-6" points="15.45 30.9 17.38 28.97 15.45 27.04 15.45 30.9"/><rect class="cls-1" x="15.45" y="30.9" width="3.86" height="3.86"/><rect class="cls-3" x="15.45" y="30.9" width="3.86" height="3.86"/><polygon class="cls-4" points="19.31 30.9 17.38 32.83 15.45 30.9 19.31 30.9"/><polygon class="cls-5" points="19.31 34.76 17.38 32.83 19.31 30.9 19.31 34.76"/><polygon class="cls-6" points="15.45 34.76 17.38 32.83 15.45 30.9 15.45 34.76"/><rect class="cls-1" x="15.45" y="34.76" width="3.86" height="3.86"/><rect class="cls-3" x="15.45" y="34.76" width="3.86" height="3.86"/><polygon class="cls-4" points="19.31 34.76 17.38 36.69 15.45 34.76 19.31 34.76"/><polygon class="cls-5" points="19.31 38.62 17.38 36.69 19.31 34.76 19.31 38.62"/><polygon class="cls-6" points="15.45 38.62 17.38 36.69 15.45 34.76 15.45 38.62"/><rect class="cls-1" x="15.45" y="38.62" width="3.86" height="3.86"/><rect class="cls-3" x="15.45" y="38.62" width="3.86" height="3.86"/><polygon class="cls-4" points="19.31 38.62 17.38 40.55 15.45 38.62 19.31 38.62"/><polygon class="cls-5" points="19.31 42.48 17.38 40.55 19.31 38.62 19.31 42.48"/><polygon class="cls-6" points="15.45 42.48 17.38 40.55 15.45 38.62 15.45 42.48"/><rect class="cls-1" x="15.45" y="42.48" width="3.86" height="3.86"/><rect class="cls-3" x="15.45" y="42.48" width="3.86" height="3.86"/><polygon class="cls-4" points="19.31 42.48 17.38 44.41 15.45 42.48 19.31 42.48"/><polygon class="cls-5" points="19.31 46.35 17.38 44.41 19.31 42.48 19.31 46.35"/><polygon class="cls-6" points="15.45 46.35 17.38 44.41 15.45 42.48 15.45 46.35"/><rect class="cls-1" x="11.59" width="3.86" height="3.86"/><rect class="cls-3" x="11.59" width="3.86" height="3.86"/><polygon class="cls-4" points="15.45 0 13.52 1.93 11.59 0 15.45 0"/><polygon class="cls-5" points="15.45 3.86 13.52 1.93 15.45 0 15.45 3.86"/><polygon class="cls-6" points="11.59 3.86 13.52 1.93 11.59 0 11.59 3.86"/><rect class="cls-1" x="11.59" y="3.86" width="3.86" height="3.86"/><rect class="cls-3" x="11.59" y="3.86" width="3.86" height="3.86"/><polygon class="cls-4" points="15.45 3.86 13.52 5.79 11.59 3.86 15.45 3.86"/><polygon class="cls-5" points="15.45 7.72 13.52 5.79 15.45 3.86 15.45 7.72"/><polygon class="cls-6" points="11.59 7.72 13.52 5.79 11.59 3.86 11.59 7.72"/><rect class="cls-1" x="11.59" y="7.72" width="3.86" height="3.86"/><rect class="cls-3" x="11.59" y="7.72" width="3.86" height="3.86"/><polygon class="cls-4" points="15.45 7.72 13.52 9.65 11.59 7.72 15.45 7.72"/><polygon class="cls-5" points="15.45 11.59 13.52 9.65 15.45 7.72 15.45 11.59"/><polygon class="cls-6" points="11.59 11.59 13.52 9.65 11.59 7.72 11.59 11.59"/><rect class="cls-1" x="11.59" y="11.59" width="3.86" height="3.86"/><rect class="cls-3" x="11.59" y="11.59" width="3.86" height="3.86"/><polygon class="cls-4" points="15.45 11.59 13.52 13.52 11.59 11.59 15.45 11.59"/><polygon class="cls-5" points="15.45 15.45 13.52 13.52 15.45 11.59 15.45 15.45"/><polygon class="cls-6" points="11.59 15.45 13.52 13.52 11.59 11.59 11.59 15.45"/><rect class="cls-1" x="11.59" y="15.45" width="3.86" height="3.86"/><rect class="cls-3" x="11.59" y="15.45" width="3.86" height="3.86"/><polygon class="cls-4" points="15.45 15.45 13.52 17.38 11.59 15.45 15.45 15.45"/><polygon class="cls-5" points="15.45 19.31 13.52 17.38 15.45 15.45 15.45 19.31"/><polygon class="cls-6" points="11.59 19.31 13.52 17.38 11.59 15.45 11.59 19.31"/><rect class="cls-1" x="11.59" y="19.31" width="3.86" height="3.86"/><rect class="cls-3" x="11.59" y="19.31" width="3.86" height="3.86"/><polygon class="cls-4" points="15.45 19.31 13.52 21.24 11.59 19.31 15.45 19.31"/><polygon class="cls-5" points="15.45 23.17 13.52 21.24 15.45 19.31 15.45 23.17"/><polygon class="cls-6" points="11.59 23.17 13.52 21.24 11.59 19.31 11.59 23.17"/><rect class="cls-1" x="11.59" y="23.17" width="3.86" height="3.86"/><rect class="cls-3" x="11.59" y="23.17" width="3.86" height="3.86"/><polygon class="cls-4" points="15.45 23.17 13.52 25.1 11.59 23.17 15.45 23.17"/><polygon class="cls-5" points="15.45 27.04 13.52 25.1 15.45 23.17 15.45 27.04"/><polygon class="cls-6" points="11.59 27.04 13.52 25.1 11.59 23.17 11.59 27.04"/><rect class="cls-1" x="11.59" y="27.04" width="3.86" height="3.86"/><rect class="cls-3" x="11.59" y="27.04" width="3.86" height="3.86"/><polygon class="cls-4" points="15.45 27.04 13.52 28.97 11.59 27.04 15.45 27.04"/><polygon class="cls-5" points="15.45 30.9 13.52 28.97 15.45 27.04 15.45 30.9"/><polygon class="cls-6" points="11.59 30.9 13.52 28.97 11.59 27.04 11.59 30.9"/><rect class="cls-1" x="11.59" y="30.9" width="3.86" height="3.86"/><rect class="cls-3" x="11.59" y="30.9" width="3.86" height="3.86"/><polygon class="cls-4" points="15.45 30.9 13.52 32.83 11.59 30.9 15.45 30.9"/><polygon class="cls-5" points="15.45 34.76 13.52 32.83 15.45 30.9 15.45 34.76"/><polygon class="cls-6" points="11.59 34.76 13.52 32.83 11.59 30.9 11.59 34.76"/><rect class="cls-1" x="11.59" y="34.76" width="3.86" height="3.86"/><rect class="cls-3" x="11.59" y="34.76" width="3.86" height="3.86"/><polygon class="cls-4" points="15.45 34.76 13.52 36.69 11.59 34.76 15.45 34.76"/><polygon class="cls-5" points="15.45 38.62 13.52 36.69 15.45 34.76 15.45 38.62"/><polygon class="cls-6" points="11.59 38.62 13.52 36.69 11.59 34.76 11.59 38.62"/><rect class="cls-1" x="11.59" y="38.62" width="3.86" height="3.86"/><rect class="cls-3" x="11.59" y="38.62" width="3.86" height="3.86"/><polygon class="cls-4" points="15.45 38.62 13.52 40.55 11.59 38.62 15.45 38.62"/><polygon class="cls-5" points="15.45 42.48 13.52 40.55 15.45 38.62 15.45 42.48"/><polygon class="cls-6" points="11.59 42.48 13.52 40.55 11.59 38.62 11.59 42.48"/><rect class="cls-1" x="11.59" y="42.48" width="3.86" height="3.86"/><rect class="cls-3" x="11.59" y="42.48" width="3.86" height="3.86"/><polygon class="cls-4" points="15.45 42.48 13.52 44.41 11.59 42.48 15.45 42.48"/><polygon class="cls-5" points="15.45 46.35 13.52 44.41 15.45 42.48 15.45 46.35"/><polygon class="cls-6" points="11.59 46.35 13.52 44.41 11.59 42.48 11.59 46.35"/><rect class="cls-1" x="7.72" width="3.86" height="3.86"/><rect class="cls-3" x="7.72" width="3.86" height="3.86"/><polygon class="cls-4" points="11.59 0 9.65 1.93 7.72 0 11.59 0"/><polygon class="cls-5" points="11.59 3.86 9.65 1.93 11.59 0 11.59 3.86"/><polygon class="cls-6" points="7.72 3.86 9.65 1.93 7.72 0 7.72 3.86"/><rect class="cls-1" x="7.72" y="3.86" width="3.86" height="3.86"/><rect class="cls-3" x="7.72" y="3.86" width="3.86" height="3.86"/><polygon class="cls-4" points="11.59 3.86 9.65 5.79 7.72 3.86 11.59 3.86"/><polygon class="cls-5" points="11.59 7.72 9.65 5.79 11.59 3.86 11.59 7.72"/><polygon class="cls-6" points="7.72 7.72 9.65 5.79 7.72 3.86 7.72 7.72"/><rect class="cls-1" x="7.72" y="7.72" width="3.86" height="3.86"/><rect class="cls-3" x="7.72" y="7.72" width="3.86" height="3.86"/><polygon class="cls-4" points="11.59 7.72 9.65 9.65 7.72 7.72 11.59 7.72"/><polygon class="cls-5" points="11.59 11.59 9.65 9.65 11.59 7.72 11.59 11.59"/><polygon class="cls-6" points="7.72 11.59 9.65 9.65 7.72 7.72 7.72 11.59"/><rect class="cls-1" x="7.72" y="11.59" width="3.86" height="3.86"/><rect class="cls-3" x="7.72" y="11.59" width="3.86" height="3.86"/><polygon class="cls-4" points="11.59 11.59 9.65 13.52 7.72 11.59 11.59 11.59"/><polygon class="cls-5" points="11.59 15.45 9.65 13.52 11.59 11.59 11.59 15.45"/><polygon class="cls-6" points="7.72 15.45 9.65 13.52 7.72 11.59 7.72 15.45"/><rect class="cls-1" x="7.72" y="15.45" width="3.86" height="3.86"/><rect class="cls-3" x="7.72" y="15.45" width="3.86" height="3.86"/><polygon class="cls-4" points="11.59 15.45 9.65 17.38 7.72 15.45 11.59 15.45"/><polygon class="cls-5" points="11.59 19.31 9.65 17.38 11.59 15.45 11.59 19.31"/><polygon class="cls-6" points="7.72 19.31 9.65 17.38 7.72 15.45 7.72 19.31"/><rect class="cls-1" x="7.72" y="19.31" width="3.86" height="3.86"/><rect class="cls-3" x="7.72" y="19.31" width="3.86" height="3.86"/><polygon class="cls-4" points="11.59 19.31 9.65 21.24 7.72 19.31 11.59 19.31"/><polygon class="cls-5" points="11.59 23.17 9.65 21.24 11.59 19.31 11.59 23.17"/><polygon class="cls-6" points="7.72 23.17 9.65 21.24 7.72 19.31 7.72 23.17"/><rect class="cls-1" x="7.72" y="23.17" width="3.86" height="3.86"/><rect class="cls-3" x="7.72" y="23.17" width="3.86" height="3.86"/><polygon class="cls-4" points="11.59 23.17 9.65 25.1 7.72 23.17 11.59 23.17"/><polygon class="cls-5" points="11.59 27.04 9.65 25.1 11.59 23.17 11.59 27.04"/><polygon class="cls-6" points="7.72 27.04 9.65 25.1 7.72 23.17 7.72 27.04"/><rect class="cls-1" x="7.72" y="27.04" width="3.86" height="3.86"/><rect class="cls-3" x="7.72" y="27.04" width="3.86" height="3.86"/><polygon class="cls-4" points="11.59 27.04 9.65 28.97 7.72 27.04 11.59 27.04"/><polygon class="cls-5" points="11.59 30.9 9.65 28.97 11.59 27.04 11.59 30.9"/><polygon class="cls-6" points="7.72 30.9 9.65 28.97 7.72 27.04 7.72 30.9"/><rect class="cls-1" x="7.72" y="30.9" width="3.86" height="3.86"/><rect class="cls-3" x="7.72" y="30.9" width="3.86" height="3.86"/><polygon class="cls-4" points="11.59 30.9 9.65 32.83 7.72 30.9 11.59 30.9"/><polygon class="cls-5" points="11.59 34.76 9.65 32.83 11.59 30.9 11.59 34.76"/><polygon class="cls-6" points="7.72 34.76 9.65 32.83 7.72 30.9 7.72 34.76"/><rect class="cls-1" x="7.72" y="34.76" width="3.86" height="3.86"/><rect class="cls-3" x="7.72" y="34.76" width="3.86" height="3.86"/><polygon class="cls-4" points="11.59 34.76 9.65 36.69 7.72 34.76 11.59 34.76"/><polygon class="cls-5" points="11.59 38.62 9.65 36.69 11.59 34.76 11.59 38.62"/><polygon class="cls-6" points="7.72 38.62 9.65 36.69 7.72 34.76 7.72 38.62"/><rect class="cls-1" x="7.72" y="38.62" width="3.86" height="3.86"/><rect class="cls-3" x="7.72" y="38.62" width="3.86" height="3.86"/><polygon class="cls-4" points="11.59 38.62 9.65 40.55 7.72 38.62 11.59 38.62"/><polygon class="cls-5" points="11.59 42.48 9.65 40.55 11.59 38.62 11.59 42.48"/><polygon class="cls-6" points="7.72 42.48 9.65 40.55 7.72 38.62 7.72 42.48"/><rect class="cls-1" x="7.72" y="42.48" width="3.86" height="3.86"/><rect class="cls-3" x="7.72" y="42.48" width="3.86" height="3.86"/><polygon class="cls-4" points="11.59 42.48 9.65 44.41 7.72 42.48 11.59 42.48"/><polygon class="cls-5" points="11.59 46.35 9.65 44.41 11.59 42.48 11.59 46.35"/><polygon class="cls-6" points="7.72 46.35 9.65 44.41 7.72 42.48 7.72 46.35"/><rect class="cls-1" x="3.86" width="3.86" height="3.86"/><rect class="cls-3" x="3.86" width="3.86" height="3.86"/><polygon class="cls-4" points="7.72 0 5.79 1.93 3.86 0 7.72 0"/><polygon class="cls-5" points="7.72 3.86 5.79 1.93 7.72 0 7.72 3.86"/><polygon class="cls-6" points="3.86 3.86 5.79 1.93 3.86 0 3.86 3.86"/><rect class="cls-1" x="3.86" y="3.86" width="3.86" height="3.86"/><rect class="cls-3" x="3.86" y="3.86" width="3.86" height="3.86"/><polygon class="cls-4" points="7.72 3.86 5.79 5.79 3.86 3.86 7.72 3.86"/><polygon class="cls-5" points="7.72 7.72 5.79 5.79 7.72 3.86 7.72 7.72"/><polygon class="cls-6" points="3.86 7.72 5.79 5.79 3.86 3.86 3.86 7.72"/><rect class="cls-1" x="3.86" y="7.72" width="3.86" height="3.86"/><rect class="cls-3" x="3.86" y="7.72" width="3.86" height="3.86"/><polygon class="cls-4" points="7.72 7.72 5.79 9.65 3.86 7.72 7.72 7.72"/><polygon class="cls-5" points="7.72 11.59 5.79 9.65 7.72 7.72 7.72 11.59"/><polygon class="cls-6" points="3.86 11.59 5.79 9.65 3.86 7.72 3.86 11.59"/><rect class="cls-1" x="3.86" y="11.59" width="3.86" height="3.86"/><rect class="cls-3" x="3.86" y="11.59" width="3.86" height="3.86"/><polygon class="cls-4" points="7.72 11.59 5.79 13.52 3.86 11.59 7.72 11.59"/><polygon class="cls-5" points="7.72 15.45 5.79 13.52 7.72 11.59 7.72 15.45"/><polygon class="cls-6" points="3.86 15.45 5.79 13.52 3.86 11.59 3.86 15.45"/><rect class="cls-1" x="3.86" y="15.45" width="3.86" height="3.86"/><rect class="cls-3" x="3.86" y="15.45" width="3.86" height="3.86"/><polygon class="cls-4" points="7.72 15.45 5.79 17.38 3.86 15.45 7.72 15.45"/><polygon class="cls-5" points="7.72 19.31 5.79 17.38 7.72 15.45 7.72 19.31"/><polygon class="cls-6" points="3.86 19.31 5.79 17.38 3.86 15.45 3.86 19.31"/><rect class="cls-1" x="3.86" y="19.31" width="3.86" height="3.86"/><rect class="cls-3" x="3.86" y="19.31" width="3.86" height="3.86"/><polygon class="cls-4" points="7.72 19.31 5.79 21.24 3.86 19.31 7.72 19.31"/><polygon class="cls-5" points="7.72 23.17 5.79 21.24 7.72 19.31 7.72 23.17"/><polygon class="cls-6" points="3.86 23.17 5.79 21.24 3.86 19.31 3.86 23.17"/><rect class="cls-1" x="3.86" y="23.17" width="3.86" height="3.86"/><rect class="cls-3" x="3.86" y="23.17" width="3.86" height="3.86"/><polygon class="cls-4" points="7.72 23.17 5.79 25.1 3.86 23.17 7.72 23.17"/><polygon class="cls-5" points="7.72 27.04 5.79 25.1 7.72 23.17 7.72 27.04"/><polygon class="cls-6" points="3.86 27.04 5.79 25.1 3.86 23.17 3.86 27.04"/><rect class="cls-1" x="3.86" y="27.04" width="3.86" height="3.86"/><rect class="cls-3" x="3.86" y="27.04" width="3.86" height="3.86"/><polygon class="cls-4" points="7.72 27.04 5.79 28.97 3.86 27.04 7.72 27.04"/><polygon class="cls-5" points="7.72 30.9 5.79 28.97 7.72 27.04 7.72 30.9"/><polygon class="cls-6" points="3.86 30.9 5.79 28.97 3.86 27.04 3.86 30.9"/><rect class="cls-1" x="3.86" y="30.9" width="3.86" height="3.86"/><rect class="cls-3" x="3.86" y="30.9" width="3.86" height="3.86"/><polygon class="cls-4" points="7.72 30.9 5.79 32.83 3.86 30.9 7.72 30.9"/><polygon class="cls-5" points="7.72 34.76 5.79 32.83 7.72 30.9 7.72 34.76"/><polygon class="cls-6" points="3.86 34.76 5.79 32.83 3.86 30.9 3.86 34.76"/><rect class="cls-1" x="3.86" y="34.76" width="3.86" height="3.86"/><rect class="cls-3" x="3.86" y="34.76" width="3.86" height="3.86"/><polygon class="cls-4" points="7.72 34.76 5.79 36.69 3.86 34.76 7.72 34.76"/><polygon class="cls-5" points="7.72 38.62 5.79 36.69 7.72 34.76 7.72 38.62"/><polygon class="cls-6" points="3.86 38.62 5.79 36.69 3.86 34.76 3.86 38.62"/><rect class="cls-1" x="3.86" y="38.62" width="3.86" height="3.86"/><rect class="cls-3" x="3.86" y="38.62" width="3.86" height="3.86"/><polygon class="cls-4" points="7.72 38.62 5.79 40.55 3.86 38.62 7.72 38.62"/><polygon class="cls-5" points="7.72 42.48 5.79 40.55 7.72 38.62 7.72 42.48"/><polygon class="cls-6" points="3.86 42.48 5.79 40.55 3.86 38.62 3.86 42.48"/><rect class="cls-1" x="3.86" y="42.48" width="3.86" height="3.86"/><rect class="cls-3" x="3.86" y="42.48" width="3.86" height="3.86"/><polygon class="cls-4" points="7.72 42.48 5.79 44.41 3.86 42.48 7.72 42.48"/><polygon class="cls-5" points="7.72 46.35 5.79 44.41 7.72 42.48 7.72 46.35"/><polygon class="cls-6" points="3.86 46.35 5.79 44.41 3.86 42.48 3.86 46.35"/><rect class="cls-1" width="3.86" height="3.86"/><rect class="cls-3" width="3.86" height="3.86"/><polygon class="cls-4" points="3.86 0 1.93 1.93 0 0 3.86 0"/><polygon class="cls-5" points="3.86 3.86 1.93 1.93 3.86 0 3.86 3.86"/><polygon class="cls-6" points="0 3.86 1.93 1.93 0 0 0 3.86"/><rect class="cls-1" y="3.86" width="3.86" height="3.86"/><rect class="cls-3" y="3.86" width="3.86" height="3.86"/><polygon class="cls-4" points="3.86 3.86 1.93 5.79 0 3.86 3.86 3.86"/><polygon class="cls-5" points="3.86 7.72 1.93 5.79 3.86 3.86 3.86 7.72"/><polygon class="cls-6" points="0 7.72 1.93 5.79 0 3.86 0 7.72"/><rect class="cls-1" y="7.72" width="3.86" height="3.86"/><rect class="cls-3" y="7.72" width="3.86" height="3.86"/><polygon class="cls-4" points="3.86 7.72 1.93 9.65 0 7.72 3.86 7.72"/><polygon class="cls-5" points="3.86 11.59 1.93 9.65 3.86 7.72 3.86 11.59"/><polygon class="cls-6" points="0 11.59 1.93 9.65 0 7.72 0 11.59"/><rect class="cls-1" y="11.59" width="3.86" height="3.86"/><rect class="cls-3" y="11.59" width="3.86" height="3.86"/><polygon class="cls-4" points="3.86 11.59 1.93 13.52 0 11.59 3.86 11.59"/><polygon class="cls-5" points="3.86 15.45 1.93 13.52 3.86 11.59 3.86 15.45"/><polygon class="cls-6" points="0 15.45 1.93 13.52 0 11.59 0 15.45"/><rect class="cls-1" y="15.45" width="3.86" height="3.86"/><rect class="cls-3" y="15.45" width="3.86" height="3.86"/><polygon class="cls-4" points="3.86 15.45 1.93 17.38 0 15.45 3.86 15.45"/><polygon class="cls-5" points="3.86 19.31 1.93 17.38 3.86 15.45 3.86 19.31"/><polygon class="cls-6" points="0 19.31 1.93 17.38 0 15.45 0 19.31"/><rect class="cls-1" y="19.31" width="3.86" height="3.86"/><rect class="cls-3" y="19.31" width="3.86" height="3.86"/><polygon class="cls-4" points="3.86 19.31 1.93 21.24 0 19.31 3.86 19.31"/><polygon class="cls-5" points="3.86 23.17 1.93 21.24 3.86 19.31 3.86 23.17"/><polygon class="cls-6" points="0 23.17 1.93 21.24 0 19.31 0 23.17"/><rect class="cls-1" y="23.17" width="3.86" height="3.86"/><rect class="cls-3" y="23.17" width="3.86" height="3.86"/><polygon class="cls-4" points="3.86 23.17 1.93 25.1 0 23.17 3.86 23.17"/><polygon class="cls-5" points="3.86 27.04 1.93 25.1 3.86 23.17 3.86 27.04"/><polygon class="cls-6" points="0 27.04 1.93 25.1 0 23.17 0 27.04"/><rect class="cls-1" y="27.04" width="3.86" height="3.86"/><rect class="cls-3" y="27.04" width="3.86" height="3.86"/><polygon class="cls-4" points="3.86 27.04 1.93 28.97 0 27.04 3.86 27.04"/><polygon class="cls-5" points="3.86 30.9 1.93 28.97 3.86 27.04 3.86 30.9"/><polygon class="cls-6" points="0 30.9 1.93 28.97 0 27.04 0 30.9"/><rect class="cls-1" y="30.9" width="3.86" height="3.86"/><rect class="cls-3" y="30.9" width="3.86" height="3.86"/><polygon class="cls-4" points="3.86 30.9 1.93 32.83 0 30.9 3.86 30.9"/><polygon class="cls-5" points="3.86 34.76 1.93 32.83 3.86 30.9 3.86 34.76"/><polygon class="cls-6" points="0 34.76 1.93 32.83 0 30.9 0 34.76"/><rect class="cls-1" y="34.76" width="3.86" height="3.86"/><rect class="cls-3" y="34.76" width="3.86" height="3.86"/><polygon class="cls-4" points="3.86 34.76 1.93 36.69 0 34.76 3.86 34.76"/><polygon class="cls-5" points="3.86 38.62 1.93 36.69 3.86 34.76 3.86 38.62"/><polygon class="cls-6" points="0 38.62 1.93 36.69 0 34.76 0 38.62"/><rect class="cls-1" y="38.62" width="3.86" height="3.86"/><rect class="cls-3" y="38.62" width="3.86" height="3.86"/><polygon class="cls-4" points="3.86 38.62 1.93 40.55 0 38.62 3.86 38.62"/><polygon class="cls-5" points="3.86 42.48 1.93 40.55 3.86 38.62 3.86 42.48"/><polygon class="cls-6" points="0 42.48 1.93 40.55 0 38.62 0 42.48"/><rect class="cls-1" y="42.48" width="3.86" height="3.86"/><rect class="cls-3" y="42.48" width="3.86" height="3.86"/><polygon class="cls-4" points="3.86 42.48 1.93 44.41 0 42.48 3.86 42.48"/><polygon class="cls-5" points="3.86 46.35 1.93 44.41 3.86 42.48 3.86 46.35"/><polygon class="cls-6" points="0 46.35 1.93 44.41 0 42.48 0 46.35"/></g><path class="cls-5" d="M24.31,46.12A22.65,22.65,0,1,1,47,23.47,22.67,22.67,0,0,1,24.31,46.12Zm0-44.8A22.15,22.15,0,1,0,46.45,23.47,22.17,22.17,0,0,0,24.31,1.32Z"/></g></g></g></svg>