<svg xmlns="http://www.w3.org/2000/svg" width="821.04" height="341.98" viewBox="0 0 821.04 341.98"><defs><style>.cls-1{fill:#191917;}.cls-2{fill:#151513;}</style></defs><title>base</title><g id="Layer_2" data-name="Layer 2"><g id="Layer_1-2" data-name="Layer 1"><path class="cls-1" d="M812.54,143.77c-9.72-21.76-26.63-20.93-26.63-20.93L677.19,114,660.25,273.09h132a37.08,37.08,0,0,0,7.18-5.28c3-3,3.8-8.45,3.8-8.45L821,174.19S822.26,165.53,812.54,143.77Z"/><path class="cls-2" d="M334.54,0C106.67,0,11.48,101.78,1.58,113.12A4.25,4.25,0,0,0,.16,115.4a11.64,11.64,0,0,0-.07,3.32l16.73,216.5a15.28,15.28,0,0,0,1.9,4.54A6.21,6.21,0,0,0,22.32,342H642.43s7.4-1.48,10.57-3a7.25,7.25,0,0,0,3.8-4.86l3.45-61.07L677.19,114S575.72,0,334.54,0Z"/></g></g></svg>