<svg xmlns="http://www.w3.org/2000/svg" width="121.86" height="191.7" viewBox="0 0 121.86 191.7"><defs><style>.cls-1{fill:#1f1f1f;}.cls-2{fill:#0f0f0f;}</style></defs><title>brake</title><g id="Layer_2" data-name="Layer 2"><g id="Layer_2-2" data-name="Layer 2"><rect class="cls-1" x="46.84" y="82.12" width="28.18" height="109.58"/><path class="cls-1" d="M115.31,8c-9.09-9.09-95.59-12-107.63,0-9.23,9.23-11.2,138.41,0,149.61,9.65,9.65,99.53,8.1,107.63,0C122.42,150.46,125.52,18.17,115.31,8ZM29.09,131.44a11.27,11.27,0,1,1,11.27-11.27A11.27,11.27,0,0,1,29.09,131.44Zm0-71.5A11.27,11.27,0,1,1,40.36,48.68,11.27,11.27,0,0,1,29.09,59.95Zm32.4,71.5a11.27,11.27,0,1,1,11.27-11.27A11.27,11.27,0,0,1,61.49,131.44Zm0-71.5A11.27,11.27,0,1,1,72.76,48.68,11.27,11.27,0,0,1,61.49,59.95Zm32.4,71.5a11.27,11.27,0,1,1,11.27-11.27A11.27,11.27,0,0,1,93.89,131.44Zm0-71.5a11.27,11.27,0,1,1,11.27-11.27A11.27,11.27,0,0,1,93.89,59.95Z"/><path class="cls-2" d="M61.49,37.41A11.27,11.27,0,1,0,72.76,48.68,11.27,11.27,0,0,0,61.49,37.41Zm0,17.47a6.2,6.2,0,1,1,6.2-6.2A6.2,6.2,0,0,1,61.49,54.87Z"/><path class="cls-2" d="M93.89,37.41a11.27,11.27,0,1,0,11.27,11.27A11.27,11.27,0,0,0,93.89,37.41Zm0,17.47a6.2,6.2,0,1,1,6.2-6.2A6.2,6.2,0,0,1,93.89,54.87Z"/><path class="cls-2" d="M29.09,37.41A11.27,11.27,0,1,0,40.36,48.68,11.27,11.27,0,0,0,29.09,37.41Zm0,17.47a6.2,6.2,0,1,1,6.2-6.2A6.2,6.2,0,0,1,29.09,54.87Z"/><path class="cls-2" d="M61.49,108.9a11.27,11.27,0,1,0,11.27,11.27A11.27,11.27,0,0,0,61.49,108.9Zm0,17.47a6.2,6.2,0,1,1,6.2-6.2A6.2,6.2,0,0,1,61.49,126.37Z"/><path class="cls-2" d="M93.89,108.9a11.27,11.27,0,1,0,11.27,11.27A11.27,11.27,0,0,0,93.89,108.9Zm0,17.47a6.2,6.2,0,1,1,6.2-6.2A6.2,6.2,0,0,1,93.89,126.37Z"/><path class="cls-2" d="M29.09,108.9a11.27,11.27,0,1,0,11.27,11.27A11.27,11.27,0,0,0,29.09,108.9Zm0,17.47a6.2,6.2,0,1,1,6.2-6.2A6.2,6.2,0,0,1,29.09,126.37Z"/></g></g></svg>