<svg xmlns="http://www.w3.org/2000/svg" width="97.19" height="29.16" viewBox="0 0 97.19 29.16"><defs><style>.cls-1{fill:#c7c7c7;}</style></defs><title>dpad-pressed</title><g id="Layer_2" data-name="Layer 2"><g id="Layer_6" data-name="Layer 6"><path class="cls-1" d="M16.44,20.94a1.13,1.13,0,0,1-.33-.8v-19A1.13,1.13,0,0,0,15,0H1.47A1.13,1.13,0,0,0,.33,1.13v19a1.13,1.13,0,0,1-.33.8l8.22,8.22Z"/><path class="cls-1" d="M89,0a1.13,1.13,0,0,1-.8.33h-19A1.13,1.13,0,0,0,68,1.47V15a1.13,1.13,0,0,0,1.13,1.13h19a1.13,1.13,0,0,1,.8.33l8.22-8.22Z"/><path class="cls-1" d="M64.9.33h-19a1.13,1.13,0,0,1-.8-.33L36.87,8.22l8.22,8.22a1.13,1.13,0,0,1,.8-.33h19A1.13,1.13,0,0,0,66,15V1.47A1.13,1.13,0,0,0,64.9.33Z"/><path class="cls-1" d="M18.44,8.22a1.13,1.13,0,0,1,.33.8V28a1.13,1.13,0,0,0,1.13,1.13H33.4A1.13,1.13,0,0,0,34.54,28V9a1.13,1.13,0,0,1,.33-.8L26.65,0Z"/></g></g></svg>