<svg xmlns="http://www.w3.org/2000/svg" width="121.86" height="206.59" viewBox="0 0 121.86 206.59"><defs><style>.cls-1{fill:#1f1f1f;}.cls-2{fill:#0f0f0f;}</style></defs><title>gas</title><g id="Layer_2" data-name="Layer 2"><g id="Layer_2-2" data-name="Layer 2"><rect class="cls-1" x="46.84" y="97.01" width="28.18" height="109.58"/><path class="cls-1" d="M115.31,9.41C106.22-1.33,19.72-4.82,7.68,9.41c-9.23,10.9-11.2,163.5,0,176.73,9.65,11.39,99.53,9.57,107.63,0C122.42,177.74,125.52,21.47,115.31,9.41Zm-86.78,161A11.27,11.27,0,1,1,39.8,159.18,11.27,11.27,0,0,1,28.53,170.45Zm0-27.33A11.27,11.27,0,1,1,39.8,131.85,11.27,11.27,0,0,1,28.53,143.12Zm0-69.68A11.27,11.27,0,1,1,39.8,62.17,11.27,11.27,0,0,1,28.53,73.44Zm0-27.33A11.27,11.27,0,1,1,39.8,34.84,11.27,11.27,0,0,1,28.53,46.11Zm32.4,124.34A11.27,11.27,0,1,1,72.2,159.18,11.27,11.27,0,0,1,60.93,170.45Zm0-27.33A11.27,11.27,0,1,1,72.2,131.85,11.27,11.27,0,0,1,60.93,143.12Zm0-69.68A11.27,11.27,0,1,1,72.2,62.17,11.27,11.27,0,0,1,60.93,73.44Zm0-27.33A11.27,11.27,0,1,1,72.2,34.84,11.27,11.27,0,0,1,60.93,46.11Zm32.4,124.34a11.27,11.27,0,1,1,11.27-11.27A11.27,11.27,0,0,1,93.33,170.45Zm0-27.33a11.27,11.27,0,1,1,11.27-11.27A11.27,11.27,0,0,1,93.33,143.12Zm0-69.68A11.27,11.27,0,1,1,104.6,62.17,11.27,11.27,0,0,1,93.33,73.44Zm0-27.33A11.27,11.27,0,1,1,104.6,34.84,11.27,11.27,0,0,1,93.33,46.11Z"/><path class="cls-2" d="M60.93,23.57A11.27,11.27,0,1,0,72.2,34.84,11.27,11.27,0,0,0,60.93,23.57Zm0,17.47a6.2,6.2,0,1,1,6.2-6.2A6.2,6.2,0,0,1,60.93,41Z"/><path class="cls-2" d="M93.33,23.57A11.27,11.27,0,1,0,104.6,34.84,11.27,11.27,0,0,0,93.33,23.57Zm0,17.47a6.2,6.2,0,1,1,6.2-6.2A6.2,6.2,0,0,1,93.33,41Z"/><path class="cls-2" d="M28.53,23.57A11.27,11.27,0,1,0,39.8,34.84,11.27,11.27,0,0,0,28.53,23.57Zm0,17.47a6.2,6.2,0,1,1,6.2-6.2A6.2,6.2,0,0,1,28.53,41Z"/><path class="cls-2" d="M60.93,50.9A11.27,11.27,0,1,0,72.2,62.17,11.27,11.27,0,0,0,60.93,50.9Zm0,17.47a6.2,6.2,0,1,1,6.2-6.2A6.2,6.2,0,0,1,60.93,68.37Z"/><path class="cls-2" d="M93.33,50.9A11.27,11.27,0,1,0,104.6,62.17,11.27,11.27,0,0,0,93.33,50.9Zm0,17.47a6.2,6.2,0,1,1,6.2-6.2A6.2,6.2,0,0,1,93.33,68.37Z"/><path class="cls-2" d="M28.53,50.9A11.27,11.27,0,1,0,39.8,62.17,11.27,11.27,0,0,0,28.53,50.9Zm0,17.47a6.2,6.2,0,1,1,6.2-6.2A6.2,6.2,0,0,1,28.53,68.37Z"/><path class="cls-2" d="M60.93,120.58A11.27,11.27,0,1,0,72.2,131.85,11.27,11.27,0,0,0,60.93,120.58Zm0,17.47a6.2,6.2,0,1,1,6.2-6.2A6.2,6.2,0,0,1,60.93,138Z"/><path class="cls-2" d="M93.33,120.58a11.27,11.27,0,1,0,11.27,11.27A11.27,11.27,0,0,0,93.33,120.58Zm0,17.47a6.2,6.2,0,1,1,6.2-6.2A6.2,6.2,0,0,1,93.33,138Z"/><path class="cls-2" d="M28.53,120.58A11.27,11.27,0,1,0,39.8,131.85,11.27,11.27,0,0,0,28.53,120.58Zm0,17.47a6.2,6.2,0,1,1,6.2-6.2A6.2,6.2,0,0,1,28.53,138Z"/><path class="cls-2" d="M60.93,147.91A11.27,11.27,0,1,0,72.2,159.18,11.27,11.27,0,0,0,60.93,147.91Zm0,17.47a6.2,6.2,0,1,1,6.2-6.2A6.2,6.2,0,0,1,60.93,165.38Z"/><path class="cls-2" d="M93.33,147.91a11.27,11.27,0,1,0,11.27,11.27A11.27,11.27,0,0,0,93.33,147.91Zm0,17.47a6.2,6.2,0,1,1,6.2-6.2A6.2,6.2,0,0,1,93.33,165.38Z"/><path class="cls-2" d="M28.53,147.91A11.27,11.27,0,1,0,39.8,159.18,11.27,11.27,0,0,0,28.53,147.91Zm0,17.47a6.2,6.2,0,1,1,6.2-6.2A6.2,6.2,0,0,1,28.53,165.38Z"/></g></g></svg>