<svg xmlns="http://www.w3.org/2000/svg" width="126.79" height="126.79" viewBox="0 0 126.79 126.79"><defs><style>.cls-1{fill:#fff;}.cls-2{opacity:0.8;}.cls-3{fill:#0d0d0d;}</style></defs><title>horn-pressed</title><g id="Layer_2" data-name="Layer 2"><g id="Layer_6" data-name="Layer 6"><circle id="_Path_" data-name="&lt;Path&gt;" class="cls-1" cx="63.39" cy="63.39" r="63.39"/><g class="cls-2"><path class="cls-3" d="M67.83,49.45l-2,4.65a2.38,2.38,0,0,1-.58.85,2.22,2.22,0,0,1-1.32.37s-16.71-.16-21.71,4.14c-3.81,3.28-9.35,8.65-9.35,15.3S40.47,87,40.47,87a1.07,1.07,0,0,1,.11,1.37c-.53.74-2.59,0-2.59,0s-11.78-6-11.78-17.89c0,0,.11-28.49,37.19-28.49h4.44s1.62-.11,2,.46,0,1.76,0,1.76Z"/><path class="cls-3" d="M55.89,82H45.63a.76.76,0,0,1-.73-1l4.58-16.79a.76.76,0,0,1,.73-.56H60.47a.76.76,0,0,1,.73,1L56.62,81.43A.76.76,0,0,1,55.89,82Z"/><path class="cls-3" d="M102,40.1H84.93a.76.76,0,0,0-.72.53L80.12,53.57a.76.76,0,0,1-.72.53H68.91a.76.76,0,0,0-.73.55L60.52,81a.76.76,0,0,0,.73,1h11a.76.76,0,0,0,.73-.55l6.78-23.36a.76.76,0,0,1,.73-.55H97a.76.76,0,0,0,.72-.53l5-15.91A.76.76,0,0,0,102,40.1Z"/></g></g></g></svg>