<svg xmlns="http://www.w3.org/2000/svg" width="88.75" height="88.75" viewBox="0 0 88.75 88.75"><defs><style>.cls-1{fill:#e36154;}.cls-2{fill:#bf5247;}</style></defs><title>knob-wheel</title><g id="Layer_2" data-name="Layer 2"><g id="Layer_6" data-name="Layer 6"><path class="cls-1" d="M88.75,44.38A44.38,44.38,0,1,1,44.38,0C72.45,0,88.75,19.68,88.75,44.38Z"/><rect class="cls-2" x="43.23" y="0.13" width="4.98" height="10.65"/><rect class="cls-2" x="80.81" y="40.39" width="4.98" height="10.65" transform="translate(129.01 -37.58) rotate(90)"/><rect class="cls-2" x="40.55" y="77.98" width="4.98" height="10.65" transform="translate(86.08 166.6) rotate(180)"/><rect class="cls-2" x="2.97" y="37.72" width="4.98" height="10.65" transform="translate(-37.58 48.49) rotate(-90)"/><rect class="cls-2" x="62.62" y="5.32" width="4.98" height="10.65" transform="translate(14.01 -31.08) rotate(29.95)"/><rect class="cls-2" x="75.09" y="58.97" width="4.98" height="10.65" transform="translate(172.01 29.17) rotate(119.95)"/><rect class="cls-2" x="21.44" y="71.43" width="4.98" height="10.65" transform="translate(6.34 155.21) rotate(-150.05)"/><rect class="cls-2" x="8.97" y="17.79" width="4.98" height="10.65" transform="translate(-14.28 21.5) rotate(-60.05)"/><rect class="cls-2" x="23.14" y="5.72" width="4.98" height="10.65" transform="matrix(0.86, -0.52, 0.52, 0.86, -2.02, 14.84)"/><rect class="cls-2" x="76.13" y="20.76" width="4.98" height="10.65" transform="translate(60.31 -54.7) rotate(58.88)"/><rect class="cls-2" x="60.09" y="73.5" width="4.98" height="10.65" transform="translate(156.89 113.95) rotate(148.88)"/><rect class="cls-2" x="8.11" y="58.71" width="4.98" height="10.65" transform="translate(-38.74 106.2) rotate(-121.12)"/></g></g></svg>