<svg xmlns="http://www.w3.org/2000/svg" width="115.38" height="158.59" viewBox="0 0 115.38 158.59"><defs><style>.cls-1{fill:#191917;}.cls-2{fill:#ccc;}.cls-3{fill:#121211;}.cls-4{fill:#141413;}</style></defs><title>shifter</title><g id="Layer_2" data-name="Layer 2"><g id="Layer_1-2" data-name="Layer 1"><circle class="cls-1" cx="57.69" cy="57.69" r="57.69"/><path class="cls-2" d="M57.69,0A57.45,57.45,0,0,0,21.14,13.06s7.4,9.55,36.55,10.82c28.61,1.24,39.17-8.38,39.25-8.45A57.47,57.47,0,0,0,57.69,0Z"/><ellipse class="cls-1" cx="59.04" cy="15.43" rx="6.26" ry="3.94"/><ellipse class="cls-1" cx="83.05" cy="13.17" rx="5.92" ry="3.66"/><ellipse class="cls-1" cx="35.03" cy="13.17" rx="5.92" ry="3.66"/><path class="cls-3" d="M40.84,111.88h33.7a0,0,0,0,1,0,0v45.51a1.2,1.2,0,0,1-1.2,1.2H42a1.2,1.2,0,0,1-1.2-1.2V111.88A0,0,0,0,1,40.84,111.88Z"/><rect class="cls-4" x="39.71" y="111.5" width="35.96" height="7.75" rx="0.97" ry="0.97"/></g></g></svg>