<svg xmlns="http://www.w3.org/2000/svg" xmlns:xlink="http://www.w3.org/1999/xlink" width="685.3" height="683.54" viewBox="0 0 685.3 683.54"><defs><style>.cls-1{fill:none;}.cls-2{fill:#141414;}.cls-3{fill:#4d4d4d;}.cls-4{fill:#1a1a1a;}.cls-5{fill:#333;}.cls-6{fill:#292929;}.cls-7{opacity:0.4;}.cls-8{opacity:0.25;}.cls-9{fill:url(#New_Pattern_Swatch_2);}.cls-10{fill:#fff;}.cls-11{fill:#c5c5c5;}.cls-12{opacity:0.2;}.cls-13{fill:#383838;}.cls-14{opacity:0.8;}.cls-15{fill:#f2f2f2;}.cls-16{fill:#212121;}.cls-17{stroke:#1a1a1a;stroke-miterlimit:10;stroke-width:0.5px;fill:url(#New_Pattern_Swatch_3);}</style><pattern id="New_Pattern_Swatch_2" data-name="New Pattern Swatch 2" width="80" height="80" patternTransform="matrix(0.28, 0.09, -0.09, 0.28, 3298.74, 2375.11)" patternUnits="userSpaceOnUse" viewBox="0 0 80 80"><rect class="cls-1" width="80" height="80"/><rect class="cls-1" x="76.63" y="76.63" width="86.75" height="86.75"/><rect class="cls-1" x="-3.37" y="76.63" width="86.75" height="86.75"/><rect class="cls-1" x="-83.37" y="76.63" width="86.75" height="86.75"/><rect class="cls-1" x="76.63" y="-3.37" width="86.75" height="86.75"/><circle cx="40" cy="66.5" r="9.63"/><circle cx="66.5" cy="66.5" r="9.63"/><circle cx="13.5" cy="66.5" r="9.63"/><circle cx="13.5" cy="40" r="9.63"/><circle cx="40" cy="40" r="9.63"/><circle cx="66.5" cy="40" r="9.63"/><circle cx="13.5" cy="13.5" r="9.63"/><circle cx="40" cy="13.5" r="9.63"/><circle cx="66.5" cy="13.5" r="9.63"/><rect class="cls-1" x="-3.37" y="-3.37" width="86.75" height="86.75"/><rect class="cls-1" x="-83.37" y="-3.37" width="86.75" height="86.75"/><rect class="cls-1" x="76.63" y="-83.37" width="86.75" height="86.75"/><rect class="cls-1" x="-3.37" y="-83.37" width="86.75" height="86.75"/><rect class="cls-1" x="-83.37" y="-83.37" width="86.75" height="86.75"/></pattern><pattern id="New_Pattern_Swatch_3" data-name="New Pattern Swatch 3" width="42.75" height="42.75" patternTransform="translate(-9.4 -2.32) scale(0.09)" patternUnits="userSpaceOnUse" viewBox="0 0 42.75 42.75"><rect class="cls-1" width="42.75" height="42.75"/><rect class="cls-2" width="42.75" height="42.75"/><polygon class="cls-3" points="42.75 0 21.38 21.38 0 0 42.75 0"/><polygon class="cls-4" points="42.75 42.75 21.38 21.38 42.75 0 42.75 42.75"/><polygon class="cls-5" points="0 42.75 21.38 21.38 0 0 0 42.75"/></pattern></defs><title>wheel</title><g id="Layer_2" data-name="Layer 2"><g id="Layer_6" data-name="Layer 6"><path class="cls-6" d="M685,321.2c0-23.67-10.14-80.3-37.19-137.78S552.7,71.14,550.16,69c-1.82-1.52-3.36-1.43-5.59-1.27l-2.26-1.59a3.51,3.51,0,0,0-1.59-3.62S512,37.76,455.07,18.6,342.65,0,342.65,0,287.14-.56,230.23,18.6s-85.65,44-85.65,44A3.51,3.51,0,0,0,143,66.17l-2.26,1.59c-2.23-.17-3.77-.25-5.59,1.27-2.54,2.11-70.58,56.91-97.63,114.39S.32,297.53.32,321.2-6,419.67,37.93,503.36A3.9,3.9,0,0,0,42,505.7l.83,1.4a3.56,3.56,0,0,0-.14,3.65c1.62,2.89,90.58,172.79,299.93,172.79S641,513.64,642.58,510.75a3.56,3.56,0,0,0-.14-3.65l.83-1.4a3.9,3.9,0,0,0,4.1-2.34C691.32,419.67,685,344.87,685,321.2ZM260,600.56C239.74,616,193,574.78,166.83,559S96.75,478.35,96,477.65c-.3-.3-1.26-.29-2.28-.21l-1.56-2.64c.31-.45.67-.93,1.09-1.45,1.9-2.32.42-3.8.42-3.8S95,469.33,83.58,448s-13.31-48.18-9.3-53.25c2.37-3,11-6.71,17.63-9.26L98.86,383l1.41-.48s12-3.8,59.38,1.55,59.17,14.09,59.17,14.09l.19.26a46,46,0,0,0,48.33,67.55l3,4.25S280.31,585.14,260,600.56Zm-5-361.77s-23.39,4.93-58.89,11.41C163,256.26,136.93,265,128.37,266.6l-7.85-.45c-8.5-1.72-21.42-6.37-27.22-10.88-7.61-5.92-11-11.27-11-25.36s6.76-27.61,13.52-36.06,19.44-19.16,36.91-28.46,24.51-16.91,33.25-29.3a42.2,42.2,0,0,0,7.82-20.73l3-2.14a12.1,12.1,0,0,0,2.38.32c2,0,4.79-3.38,4.79-3.38s37.76-24.23,69-35.22,89.6-12.4,89.6-12.4S401,64,432.25,74.95s69,35.22,69,35.22,2.82,3.38,4.79,3.38a12.1,12.1,0,0,0,2.38-.32l3,2.14a42.2,42.2,0,0,0,7.82,20.73c8.73,12.4,15.78,20,33.25,29.3s30.15,20,36.91,28.46,13.52,22,13.52,36.06-3.38,19.44-11,25.36c-5.72,4.45-19.09,9.14-27.41,10.89l-7.49.43c-12.18-2.14-33.73-10.14-67.94-16.39-35.5-6.48-58.89-11.41-58.89-11.41s-27-35.08-87.63-35.08S255,238.79,255,238.79ZM601.72,448c-11.41,21.34-10.14,21.55-10.14,21.55s-1.48,1.48.42,3.8c.43.52.78,1,1.09,1.45l-1.56,2.64c-1-.08-2-.09-2.28.21-.7.7-44.59,65.58-70.79,81.36s-72.9,57-93.19,41.56-10.35-130.38-10.35-130.38l3-4.25a46.65,46.65,0,0,0,6.49.69c1,.06,1.95.11,2.93.11l-.1-.1a46,46,0,0,0,39-68.24l.19-.26s11.83-8.73,59.17-14.09,57.14-2.42,59.38-1.55c.62.24,2.26.8,4.43,1.57l2.94,1.07c6.78,2.51,16,6.3,18.62,9.62C615,399.81,613.13,426.65,601.72,448Z"/><path class="cls-7" d="M120.47,266.15s-15.63,46.32-19.29,61.25-9.3,39.16-9.3,46.21v11.88l7-2.53a79.74,79.74,0,0,1,.5-9.63c1.06-9.76,8-33.32,10.57-43.67,3.66-14.93,18.45-63.06,18.45-63.06Z"/><g class="cls-8"><path class="cls-9" d="M41.21,504.29l50.74-29.93.26.44c.31-.45.67-.93,1.09-1.45,1.9-2.32.42-3.8.42-3.8S95,469.33,83.58,448s-13.31-48.18-9.3-53.25c2.37-3,11-6.71,17.63-9.26h0V373.61c0-7,5.64-31.27,9.3-46.21s19.29-61.25,19.29-61.25h0c-8.5-1.72-21.42-6.37-27.22-10.88-7.61-5.92-11-11.27-11-25.36s6.76-27.61,13.52-36.06,19.44-19.16,36.91-28.46,24.51-16.91,33.25-29.3a42.2,42.2,0,0,0,7.82-20.73l-.48.34L140,68.29l2.44-1.72-1.7,1.19c-2.23-.17-3.77-.25-5.59,1.27-2.54,2.11-70.58,56.91-97.63,114.39S.32,297.53.32,321.2-6,419.67,37.93,503.36A3.9,3.9,0,0,0,42,505.7l.11.18Z"/></g><g class="cls-8"><path class="cls-9" d="M644.09,504.29l-50.74-29.93-.26.44c-.31-.45-.67-.93-1.09-1.45-1.9-2.32-.42-3.8-.42-3.8s-1.27-.21,10.14-21.55S615,399.81,611,394.74c-2.37-3-11-6.71-17.63-9.26h0V373.61c0-7-5.64-31.27-9.3-46.21s-19.29-61.25-19.29-61.25h0c8.5-1.72,21.42-6.37,27.22-10.88,7.61-5.92,11-11.27,11-25.36s-6.76-27.61-13.52-36.06S570,174.69,552.56,165.39s-24.51-16.91-33.25-29.3a42.2,42.2,0,0,1-7.82-20.73l.48.34,33.35-47.42-2.44-1.72,1.7,1.19c2.23-.17,3.77-.25,5.59,1.27,2.54,2.11,70.58,56.91,97.63,114.39S685,297.53,685,321.2s6.34,98.47-37.61,182.15a3.9,3.9,0,0,1-4.1,2.34l-.11.18Z"/></g><path class="cls-7" d="M564.82,266.15s15.63,46.32,19.29,61.25,9.3,39.16,9.3,46.21v11.88l-7-2.53a79.74,79.74,0,0,0-.5-9.63c-1.06-9.76-8-33.32-10.57-43.67-3.66-14.93-18.45-63.06-18.45-63.06Z"/><circle class="cls-10" cx="427.81" cy="361.25" r="1.58"/><circle class="cls-10" cx="433.94" cy="361.25" r="2.32"/><circle class="cls-10" cx="440.59" cy="362.41" r="2.85"/><circle class="cls-10" cx="447.57" cy="365.26" r="3.17"/><rect class="cls-11" x="271.22" y="539.28" width="142.85" height="27.05" rx="1.19" ry="1.19"/><rect class="cls-12" x="588.17" y="489.03" width="58.91" height="4.31" transform="translate(335.24 -245.69) rotate(30.54)"/><rect class="cls-12" x="38.22" y="489.03" width="58.91" height="4.31" transform="translate(375.53 879.85) rotate(149.46)"/><rect class="cls-12" x="129.43" y="88.6" width="57.97" height="4.31" transform="translate(175.32 272.54) rotate(-125.12)"/><rect class="cls-12" x="497.9" y="88.6" width="57.97" height="4.31" transform="translate(149.54 469.51) rotate(-54.88)"/><circle id="_Path_" data-name="&lt;Path&gt;" class="cls-13" cx="259.25" cy="420.66" r="43.6"/><circle id="_Path_2" data-name="&lt;Path&gt;" class="cls-1" cx="259.25" cy="420.66" r="36.63"/><circle id="_Path_3" data-name="&lt;Path&gt;" class="cls-4" cx="259.25" cy="420.66" r="38.18"/><g id="_Group_" data-name="&lt;Group&gt;"><path id="_Path_4" data-name="&lt;Path&gt;" class="cls-13" d="M222.78,424a36.62,36.62,0,0,0,72.93,0Z"/><rect class="cls-10" x="254.39" y="436.65" width="9.72" height="1.69"/><path id="_Path_5" data-name="&lt;Path&gt;" class="cls-13" d="M295.72,417.28a36.62,36.62,0,0,0-72.93,0Z"/><polygon class="cls-10" points="264.11 402.98 260.1 402.98 260.1 398.97 258.4 398.97 258.4 402.98 254.39 402.98 254.39 404.67 258.4 404.67 258.4 408.69 260.1 408.69 260.1 404.67 264.11 404.67 264.11 402.98"/></g><circle id="_Path_6" data-name="&lt;Path&gt;" cx="342.65" cy="428.97" r="15.43"/><circle id="_Path_7" data-name="&lt;Path&gt;" cx="342.65" cy="334.73" r="63.39"/><g class="cls-14"><path class="cls-15" d="M347.09,320.78l-2,4.65a2.38,2.38,0,0,1-.58.85,2.22,2.22,0,0,1-1.32.37s-16.71-.16-21.71,4.14c-3.81,3.28-9.35,8.65-9.35,15.3s7.55,12.2,7.55,12.2a1.07,1.07,0,0,1,.11,1.37c-.53.74-2.59,0-2.59,0s-11.78-6-11.78-17.89c0,0,.11-28.49,37.19-28.49h4.44s1.62-.11,2,.46,0,1.76,0,1.76Z"/><path class="cls-15" d="M335.14,353.32H324.89a.76.76,0,0,1-.73-1l4.58-16.79a.76.76,0,0,1,.73-.56h10.26a.76.76,0,0,1,.73,1l-4.58,16.79A.76.76,0,0,1,335.14,353.32Z"/><path class="cls-15" d="M381.23,311.43H364.18a.76.76,0,0,0-.72.53l-4.08,12.94a.76.76,0,0,1-.72.53H348.16a.76.76,0,0,0-.73.55l-7.66,26.37a.76.76,0,0,0,.73,1h11a.76.76,0,0,0,.73-.55L359,329.41a.76.76,0,0,1,.73-.55h16.46a.76.76,0,0,0,.72-.53l5-15.91A.76.76,0,0,0,381.23,311.43Z"/></g><path d="M520.15,354.24a12.05,12.05,0,1,1,12.05-12.05A12.07,12.07,0,0,1,520.15,354.24Z"/><path class="cls-4" d="M520.15,330.64a11.55,11.55,0,1,1-11.55,11.55,11.55,11.55,0,0,1,11.55-11.55m0-1a12.55,12.55,0,1,0,12.55,12.55,12.57,12.57,0,0,0-12.55-12.55Z"/><polygon class="cls-10" points="525.12 338.42 523.92 337.23 520.15 341 516.38 337.23 515.19 338.42 518.96 342.19 515.19 345.96 516.38 347.16 520.15 343.39 523.92 347.16 525.12 345.96 521.35 342.19 525.12 338.42"/><path d="M545.23,329.17a12.05,12.05,0,1,1,12.05-12.05A12.07,12.07,0,0,1,545.23,329.17Z"/><path class="cls-4" d="M545.23,305.56a11.55,11.55,0,1,1-11.55,11.55,11.55,11.55,0,0,1,11.55-11.55m0-1a12.55,12.55,0,1,0,12.55,12.55,12.57,12.57,0,0,0-12.55-12.55Z"/><path class="cls-10" d="M545.23,323a5.92,5.92,0,1,1,5.92-5.92A5.92,5.92,0,0,1,545.23,323Zm0-10.14a4.23,4.23,0,1,0,4.23,4.23A4.23,4.23,0,0,0,545.23,312.89Z"/><path d="M495.08,329.17a12.05,12.05,0,1,1,12.05-12.05A12.07,12.07,0,0,1,495.08,329.17Z"/><path class="cls-4" d="M495.08,305.56a11.55,11.55,0,1,1-11.55,11.55,11.55,11.55,0,0,1,11.55-11.55m0-1a12.55,12.55,0,1,0,12.55,12.55,12.57,12.57,0,0,0-12.55-12.55Z"/><path class="cls-10" d="M500,322h-9.86v-9.86H500Zm-8.17-1.69h6.48v-6.48h-6.48Z"/><path d="M520.15,304.09A12.05,12.05,0,1,1,532.21,292,12.07,12.07,0,0,1,520.15,304.09Z"/><path class="cls-4" d="M520.15,280.49A11.55,11.55,0,1,1,508.6,292a11.55,11.55,0,0,1,11.55-11.55m0-1A12.55,12.55,0,1,0,532.71,292a12.57,12.57,0,0,0-12.55-12.55Z"/><path class="cls-10" d="M527.29,296.16H513l7.13-12.36Zm-11.34-1.69h8.41l-4.21-7.29Z"/><g id="_Group_2" data-name="&lt;Group&gt;"><path class="cls-16" d="M168.1,346.21a30.51,30.51,0,1,1,30.51-30.51A30.54,30.54,0,0,1,168.1,346.21Z"/><path class="cls-4" d="M168.1,285.7a30,30,0,1,1-30,30,30,30,0,0,1,30-30m0-1a31,31,0,1,0,31,31,31,31,0,0,0-31-31Z"/></g><path class="cls-13" d="M161.35,345.24a1.51,1.51,0,0,1-1.51-1.51v-19a.76.76,0,0,0-.76-.76h-19a1.51,1.51,0,0,1-1.51-1.51V309a1.51,1.51,0,0,1,1.51-1.51h19a.76.76,0,0,0,.76-.76v-19a1.51,1.51,0,0,1,1.51-1.51h13.5a1.51,1.51,0,0,1,1.51,1.51v19a.76.76,0,0,0,.76.76h19a1.51,1.51,0,0,1,1.51,1.51v13.5a1.51,1.51,0,0,1-1.51,1.51h-19a.76.76,0,0,0-.76.76v19a1.51,1.51,0,0,1-1.51,1.51Z"/><path class="cls-4" d="M174.85,286.55a1.13,1.13,0,0,1,1.13,1.13v19a1.13,1.13,0,0,0,1.13,1.13h19a1.13,1.13,0,0,1,1.13,1.13v13.5a1.13,1.13,0,0,1-1.13,1.13h-19a1.13,1.13,0,0,0-1.13,1.13v19a1.13,1.13,0,0,1-1.13,1.13h-13.5a1.13,1.13,0,0,1-1.13-1.13v-19a1.13,1.13,0,0,0-1.13-1.13h-19a1.13,1.13,0,0,1-1.13-1.13V309a1.13,1.13,0,0,1,1.13-1.13h19a1.13,1.13,0,0,0,1.13-1.13v-19a1.13,1.13,0,0,1,1.13-1.13h13.5m0-.75h-13.5a1.89,1.89,0,0,0-1.88,1.88v19a.38.38,0,0,1-.38.38h-19a1.89,1.89,0,0,0-1.88,1.88v13.5a1.89,1.89,0,0,0,1.88,1.88h19a.38.38,0,0,1,.38.38v19a1.89,1.89,0,0,0,1.88,1.88h13.5a1.89,1.89,0,0,0,1.88-1.88v-19a.38.38,0,0,1,.38-.38h19a1.89,1.89,0,0,0,1.88-1.88V309a1.89,1.89,0,0,0-1.88-1.88h-19a.38.38,0,0,1-.38-.38v-19a1.89,1.89,0,0,0-1.88-1.88Z"/><circle id="_Path_8" data-name="&lt;Path&gt;" class="cls-17" cx="279.25" cy="261.19" r="22.4"/><circle id="_Path_9" data-name="&lt;Path&gt;" class="cls-17" cx="406.04" cy="261.19" r="22.4"/><g id="_Rectangle_" data-name="&lt;Rectangle&gt;"><rect x="317.43" y="481.72" width="17.48" height="10.51"/><path class="cls-4" d="M334.41,482.22v9.51H317.93v-9.51h16.48m1-1H316.93v11.51h18.48V481.22Z"/></g><g id="_Group_3" data-name="&lt;Group&gt;"><polygon points="352.08 481.56 370.87 486.98 352.08 492.4 352.08 481.56"/><path class="cls-4" d="M352.58,482.22,369.06,487l-16.48,4.75v-9.51m-1-1.33v12.17l1.28-.37,16.48-4.75,3.33-1-3.33-1-16.48-4.75-1.28-.37Z"/></g></g></g></svg>